<svg width="293" height="45" viewBox="0 0 293 45" fill="none" xmlns="http://www.w3.org/2000/svg">
<path d="M16.5336 16.2007L20.5874 0.410233C20.7475 -0.209238 21.6774 -0.0966065 21.6774 0.542977V21.2409H7.74026C7.20454 21.2409 7.04443 20.529 7.52885 20.3077L16.5315 16.2007H16.5336Z" fill="#FDB913"/>
<path d="M16.5336 16.2007L20.5874 0.410233C20.7475 -0.209238 21.6774 -0.0966065 21.6774 0.542977V21.2409L16.5336 16.2007Z" fill="#F7941D"/>
<path d="M11.8106 14.5133C10.3081 13.3266 10.6242 12.2244 11.5663 11.3013C12.5084 10.3781 13.6333 10.0683 14.8443 11.5406C15.8603 12.7755 15.9835 14.2136 15.261 14.9215C14.5385 15.6295 13.0708 15.5068 11.8106 14.5133Z" fill="#F7941D"/>
<path d="M29.3849 16.2007L45.4998 20.173C46.132 20.3298 46.017 21.2409 45.3643 21.2409H24.2411V7.58443C24.2411 7.05949 24.9677 6.90261 25.1935 7.37727L29.3849 16.1987V16.2007Z" fill="#00B6BE"/>
<path d="M29.3849 16.2007L45.4998 20.173C46.132 20.3298 46.017 21.2409 45.3643 21.2409H24.2411L29.3849 16.2007Z" fill="#00949F"/>
<path d="M31.109 11.5728C32.3201 10.1005 33.4449 10.4103 34.387 11.3334C35.3292 12.2566 35.6453 13.3588 34.1428 14.5454C32.8825 15.541 31.4149 15.6617 30.6924 14.9537C29.9698 14.2458 30.0951 12.8077 31.109 11.5728Z" fill="#00949F"/>
<path d="M29.3849 28.7993L25.331 44.5898C25.1709 45.2092 24.2411 45.0966 24.2411 44.457V23.7591H38.1782C38.7139 23.7591 38.874 24.471 38.3896 24.6923L29.3869 28.7993H29.3849Z" fill="#A154A1"/>
<path d="M29.3849 28.7993L25.331 44.5898C25.1709 45.2092 24.2411 45.0966 24.2411 44.457V23.7591L29.3849 28.7993Z" fill="#6C3F99"/>
<path d="M34.1079 30.4867C35.6104 31.6734 35.2943 32.7756 34.3521 33.6987C33.41 34.6219 32.2852 34.9317 31.0741 33.4594C30.0581 32.2245 29.935 30.7864 30.6575 30.0785C31.38 29.3705 32.8476 29.4932 34.1079 30.4867Z" fill="#6C3F99"/>
<path d="M16.5336 28.7993L0.418662 24.827C-0.213537 24.6702 -0.0985914 23.7591 0.554133 23.7591H21.6774V37.4156C21.6774 37.9405 20.9508 38.0974 20.725 37.6227L16.5336 28.8013V28.7993Z" fill="#C28A74"/>
<path d="M16.5336 28.7993L0.418662 24.827C-0.213537 24.6702 -0.0985914 23.7591 0.554133 23.7591H21.6774L16.5336 28.7993Z" fill="#825D53"/>
<path d="M14.8114 33.4272C13.6004 34.8995 12.4756 34.5897 11.5335 33.6666C10.5913 32.7434 10.2752 31.6412 11.7777 30.4546C13.038 29.459 14.5056 29.3383 15.2281 30.0463C15.9506 30.7542 15.8254 32.1923 14.8114 33.4272Z" fill="#825D53"/>
<path d="M62.3763 23.3951C62.6512 23.2604 62.8368 23.0516 62.933 22.7688C63.0429 22.4724 63.0361 22.1492 62.9124 21.799L61.5723 17.7177H56.8717C56.803 18.0006 56.7274 18.4047 56.645 18.93C56.5625 19.4553 56.535 20.0075 56.5625 20.5867C56.59 21.1524 56.7137 21.698 56.9336 22.2233C57.1535 22.7351 57.5246 23.1257 58.0469 23.3951H53.0989C53.415 23.2739 53.7105 23.0584 53.9854 22.7486C54.2741 22.4253 54.5421 22.0549 54.7895 21.6373C55.0506 21.2198 55.2843 20.782 55.4904 20.3241C55.6966 19.8661 55.8753 19.4418 56.0265 19.0512C56.1776 18.6471 56.2945 18.3037 56.3769 18.0208C56.4732 17.7379 56.535 17.5628 56.5625 17.4955C56.6312 17.28 56.7137 17.0173 56.8099 16.7075C56.9198 16.3977 57.0367 16.061 57.1604 15.6973C57.2841 15.3337 57.4078 14.9565 57.5315 14.5659C57.6689 14.1753 57.7995 13.7914 57.9232 13.4143C58.2118 12.5253 58.5211 11.5892 58.8509 10.6059C58.9609 10.2557 58.9677 9.93915 58.8715 9.65629C58.7753 9.37343 58.5898 9.16465 58.3149 9.02996H63.201C62.9261 9.16465 62.7406 9.37343 62.6444 9.65629C62.5482 9.93915 62.555 10.2557 62.665 10.6059L66.3759 21.799C66.4859 22.1492 66.6852 22.4724 66.9738 22.7688C67.2762 23.0516 67.6061 23.2604 67.9634 23.3951H62.3763ZM61.4486 17.3743L59.222 10.6261L56.9748 17.3743H61.4486Z" fill="#02260B"/>
<path d="M70.8589 11.9798C71.0651 12.559 71.3675 13.0506 71.766 13.4547C72.1784 13.8588 72.6319 14.2157 73.1267 14.5255C73.6215 14.8218 74.1301 15.1047 74.6523 15.3741C75.1884 15.63 75.6763 15.9061 76.1161 16.2024C76.5697 16.4853 76.9476 16.8153 77.25 17.1924C77.5524 17.5696 77.7311 18.0275 77.7861 18.5663C77.8548 19.2667 77.7792 19.9133 77.5593 20.5059C77.3394 21.0986 77.0026 21.6104 76.5491 22.0414C76.0955 22.459 75.5389 22.789 74.8791 23.0314C74.2331 23.2739 73.5116 23.3951 72.7144 23.3951C72.2608 23.3951 71.8348 23.3412 71.4362 23.2335C71.0376 23.1392 70.6734 23.0651 70.3435 23.0112C70.0136 22.9439 69.7113 22.9304 69.4364 22.9708C69.1615 22.9978 68.9141 23.1392 68.6942 23.3951V19.2331C68.9003 19.6371 69.1615 20.0682 69.4776 20.5261C69.8075 20.9706 70.1648 21.3814 70.5497 21.7586C70.9482 22.1357 71.3606 22.4522 71.7866 22.7082C72.2265 22.9506 72.6525 23.0718 73.0649 23.0718C73.5184 23.0718 73.8964 22.9708 74.1988 22.7688C74.5012 22.5667 74.7279 22.3108 74.8791 22.001C75.0303 21.6912 75.1059 21.3545 75.1059 20.9908C75.1196 20.6137 75.0509 20.2567 74.8997 19.92C74.7348 19.5428 74.4737 19.2196 74.1163 18.9502C73.759 18.6808 73.3466 18.4181 72.8793 18.1622C72.4258 17.9063 71.9516 17.6437 71.4568 17.3743C70.962 17.0914 70.4947 16.7681 70.0549 16.4045C69.6151 16.0408 69.2302 15.6165 68.9003 15.1316C68.5705 14.6332 68.3506 14.0339 68.2406 13.3334C68.1169 12.633 68.165 12.0202 68.3849 11.4949C68.6048 10.9561 68.9347 10.5049 69.3745 10.1412C69.8143 9.77751 70.3298 9.50139 70.9208 9.31282C71.5255 9.12425 72.1509 9.02996 72.7969 9.02996C73.3054 9.02996 73.759 9.08384 74.1576 9.19159C74.5699 9.28588 74.9341 9.3667 75.2502 9.43404C75.5663 9.48792 75.8481 9.50139 76.0955 9.47445C76.3566 9.44751 76.5972 9.29935 76.8171 9.02996V12.8687C76.5697 12.5051 76.281 12.1145 75.9512 11.6969C75.6213 11.2794 75.264 10.9022 74.8791 10.5655C74.4943 10.2153 74.0888 9.92568 73.6628 9.6967C73.2504 9.46772 72.845 9.35323 72.4464 9.35323C72.1028 9.35323 71.8073 9.44078 71.5599 9.61588C71.3125 9.79098 71.1201 10.0132 70.9826 10.2826C70.8589 10.5385 70.7833 10.8214 70.7558 11.1312C70.7283 11.441 70.7627 11.7238 70.8589 11.9798Z" fill="#02260B"/>
<path d="M81.0464 11.9798C81.2525 12.559 81.5549 13.0506 81.9535 13.4547C82.3658 13.8588 82.8194 14.2157 83.3142 14.5255C83.809 14.8218 84.3175 15.1047 84.8398 15.3741C85.3758 15.63 85.8637 15.9061 86.3036 16.2024C86.7571 16.4853 87.1351 16.8153 87.4375 17.1924C87.7399 17.5696 87.9185 18.0275 87.9735 18.5663C88.0422 19.2667 87.9666 19.9133 87.7467 20.5059C87.5268 21.0986 87.1901 21.6104 86.7365 22.0414C86.283 22.459 85.7263 22.789 85.0666 23.0314C84.4206 23.2739 83.699 23.3951 82.9018 23.3951C82.4483 23.3951 82.0222 23.3412 81.6236 23.2335C81.225 23.1392 80.8608 23.0651 80.5309 23.0112C80.2011 22.9439 79.8987 22.9304 79.6238 22.9708C79.3489 22.9978 79.1015 23.1392 78.8816 23.3951V19.2331C79.0878 19.6371 79.3489 20.0682 79.665 20.5261C79.9949 20.9706 80.3523 21.3814 80.7371 21.7586C81.1357 22.1357 81.548 22.4522 81.9741 22.7082C82.4139 22.9506 82.84 23.0718 83.2523 23.0718C83.7059 23.0718 84.0839 22.9708 84.3862 22.7688C84.6886 22.5667 84.9154 22.3108 85.0666 22.001C85.2178 21.6912 85.2934 21.3545 85.2934 20.9908C85.3071 20.6137 85.2384 20.2567 85.0872 19.92C84.9223 19.5428 84.6611 19.2196 84.3038 18.9502C83.9464 18.6808 83.5341 18.4181 83.0668 18.1622C82.6132 17.9063 82.139 17.6437 81.6442 17.3743C81.1494 17.0914 80.6821 16.7681 80.2423 16.4045C79.8025 16.0408 79.4177 15.6165 79.0878 15.1316C78.7579 14.6332 78.538 14.0339 78.4281 13.3334C78.3044 12.633 78.3525 12.0202 78.5724 11.4949C78.7923 10.9561 79.1222 10.5049 79.562 10.1412C80.0018 9.77751 80.5172 9.50139 81.1082 9.31282C81.713 9.12425 82.3383 9.02996 82.9843 9.02996C83.4928 9.02996 83.9464 9.08384 84.345 9.19159C84.7573 9.28588 85.1216 9.3667 85.4377 9.43404C85.7538 9.48792 86.0356 9.50139 86.283 9.47445C86.5441 9.44751 86.7846 9.29935 87.0045 9.02996V12.8687C86.7571 12.5051 86.4685 12.1145 86.1386 11.6969C85.8088 11.2794 85.4514 10.9022 85.0666 10.5655C84.6817 10.2153 84.2763 9.92568 83.8502 9.6967C83.4379 9.46772 83.0324 9.35323 82.6338 9.35323C82.2902 9.35323 81.9947 9.44078 81.7473 9.61588C81.4999 9.79098 81.3075 10.0132 81.1701 10.2826C81.0464 10.5385 80.9708 10.8214 80.9433 11.1312C80.9158 11.441 80.9501 11.7238 81.0464 11.9798Z" fill="#02260B"/>
<path d="M95.0532 9.02996C96.0977 9.02996 97.0324 9.21853 97.857 9.59568C98.6954 9.97282 99.4033 10.4914 99.9805 11.1514C100.558 11.7979 100.998 12.559 101.3 13.4345C101.616 14.2965 101.774 15.2192 101.774 16.2024C101.774 17.2396 101.616 18.1959 101.3 19.0714C100.984 19.9469 100.53 20.708 99.9393 21.3545C99.3483 21.9875 98.6404 22.4859 97.8158 22.8496C96.9911 23.2133 96.0703 23.3951 95.0532 23.3951C94.0361 23.3951 93.1083 23.2133 92.2699 22.8496C91.4453 22.4859 90.7375 21.9875 90.1465 21.3545C89.5692 20.708 89.1225 19.9469 88.8064 19.0714C88.4903 18.1959 88.3322 17.2396 88.3322 16.2024C88.3322 15.2192 88.4834 14.2965 88.7858 13.4345C89.0881 12.559 89.528 11.7979 90.1052 11.1514C90.6825 10.4914 91.3834 9.97282 92.2081 9.59568C93.0465 9.21853 93.9949 9.02996 95.0532 9.02996ZM95.0532 23.0718C95.6304 23.0718 96.1321 22.8967 96.5582 22.5465C96.998 22.1829 97.3553 21.6912 97.6302 21.0716C97.9189 20.4386 98.1319 19.7112 98.2694 18.8896C98.4205 18.0545 98.4961 17.1588 98.4961 16.2024C98.4961 15.2596 98.4205 14.3706 98.2694 13.5355C98.1319 12.7004 97.9189 11.973 97.6302 11.3534C97.3553 10.7338 96.998 10.2489 96.5582 9.89874C96.1321 9.53506 95.6304 9.35323 95.0532 9.35323C94.4759 9.35323 93.9674 9.53506 93.5275 9.89874C93.1015 10.2489 92.7441 10.7338 92.4555 11.3534C92.1669 11.973 91.947 12.7004 91.7958 13.5355C91.6583 14.3706 91.5896 15.2596 91.5896 16.2024C91.5896 17.1588 91.6583 18.0545 91.7958 18.8896C91.947 19.7112 92.1669 20.4386 92.4555 21.0716C92.7441 21.6912 93.1015 22.1829 93.5275 22.5465C93.9674 22.8967 94.4759 23.0718 95.0532 23.0718Z" fill="#02260B"/>
<path d="M109.642 23.0718C110.384 23.0718 111.14 22.7486 111.91 22.102C112.693 21.4555 113.415 20.6069 114.074 19.5563V23.3951C113.896 23.1527 113.676 23.018 113.415 22.991C113.153 22.9506 112.837 22.9641 112.466 23.0314C112.109 23.0853 111.69 23.1594 111.209 23.2537C110.741 23.348 110.219 23.3951 109.642 23.3951C108.46 23.3951 107.415 23.22 106.508 22.8698C105.601 22.5061 104.845 22.0078 104.24 21.3747C103.635 20.7416 103.175 19.9873 102.859 19.1118C102.557 18.2228 102.405 17.253 102.405 16.2024C102.405 15.1922 102.557 14.2494 102.859 13.3739C103.175 12.4983 103.635 11.7373 104.24 11.0908C104.845 10.4443 105.601 9.93915 106.508 9.57547C107.415 9.2118 108.46 9.02996 109.642 9.02996C110.329 9.02996 110.893 9.0771 111.332 9.17139C111.772 9.26567 112.143 9.34649 112.446 9.41384C112.762 9.46772 113.03 9.48119 113.25 9.45425C113.483 9.42731 113.731 9.28588 113.992 9.02996V12.8687C113.758 12.4916 113.483 12.0943 113.167 11.6767C112.851 11.2592 112.507 10.882 112.136 10.5453C111.765 10.1951 111.367 9.91221 110.941 9.6967C110.528 9.46772 110.095 9.35323 109.642 9.35323C109.064 9.35323 108.528 9.53506 108.034 9.89874C107.553 10.2489 107.133 10.7338 106.776 11.3534C106.432 11.973 106.158 12.7004 105.951 13.5355C105.759 14.3706 105.663 15.2596 105.663 16.2024C105.663 17.1453 105.759 18.0343 105.951 18.8694C106.158 19.7045 106.432 20.4318 106.776 21.0514C107.133 21.671 107.553 22.1627 108.034 22.5263C108.528 22.89 109.064 23.0718 109.642 23.0718Z" fill="#02260B"/>
<path d="M120.209 9.02996C119.893 9.16465 119.639 9.37343 119.446 9.65629C119.254 9.93915 119.158 10.2557 119.158 10.6059V21.799C119.158 22.1492 119.254 22.4724 119.446 22.7688C119.639 23.0516 119.893 23.2604 120.209 23.3951H114.807C115.124 23.2604 115.378 23.0516 115.57 22.7688C115.763 22.4724 115.859 22.1492 115.859 21.799V10.6059C115.859 10.2557 115.763 9.93915 115.57 9.65629C115.378 9.37343 115.124 9.16465 114.807 9.02996H120.209Z" fill="#02260B"/>
<path d="M130.044 23.3951C130.319 23.2604 130.505 23.0516 130.601 22.7688C130.711 22.4724 130.704 22.1492 130.58 21.799L129.24 17.7177H124.54C124.471 18.0006 124.395 18.4047 124.313 18.93C124.231 19.4553 124.203 20.0075 124.231 20.5867C124.258 21.1524 124.382 21.698 124.602 22.2233C124.822 22.7351 125.193 23.1257 125.715 23.3951H120.767C121.083 23.2739 121.379 23.0584 121.653 22.7486C121.942 22.4253 122.21 22.0549 122.457 21.6373C122.719 21.2198 122.952 20.782 123.158 20.3241C123.365 19.8661 123.543 19.4418 123.694 19.0512C123.846 18.6471 123.963 18.3037 124.045 18.0208C124.141 17.7379 124.203 17.5628 124.231 17.4955C124.299 17.28 124.382 17.0173 124.478 16.7075C124.588 16.3977 124.705 16.061 124.828 15.6973C124.952 15.3337 125.076 14.9565 125.199 14.5659C125.337 14.1753 125.468 13.7914 125.591 13.4143C125.88 12.5253 126.189 11.5892 126.519 10.6059C126.629 10.2557 126.636 9.93915 126.54 9.65629C126.443 9.37343 126.258 9.16465 125.983 9.02996H130.869C130.594 9.16465 130.409 9.37343 130.312 9.65629C130.216 9.93915 130.223 10.2557 130.333 10.6059L134.044 21.799C134.154 22.1492 134.353 22.4724 134.642 22.7688C134.944 23.0516 135.274 23.2604 135.631 23.3951H130.044ZM129.117 17.3743L126.89 10.6261L124.643 17.3743H129.117Z" fill="#02260B"/>
<path d="M133.068 9.02996H145.356V12.8687C145.246 12.3973 145.047 11.9528 144.758 11.5353C144.469 11.1043 144.119 10.7271 143.707 10.4038C143.308 10.0806 142.861 9.82466 142.366 9.63608C141.872 9.44751 141.37 9.35323 140.861 9.35323V21.799C140.861 22.1492 140.958 22.4724 141.15 22.7688C141.342 23.0516 141.597 23.2604 141.913 23.3951H136.511C136.827 23.2604 137.082 23.0516 137.274 22.7688C137.467 22.4724 137.563 22.1492 137.563 21.799V9.35323C137.041 9.35323 136.532 9.44751 136.037 9.63608C135.556 9.82466 135.109 10.0806 134.697 10.4038C134.299 10.7271 133.955 11.1043 133.666 11.5353C133.378 11.9528 133.178 12.3973 133.068 12.8687V9.02996Z" fill="#02260B"/>
<path d="M151.335 9.02996C151.019 9.16465 150.765 9.37343 150.572 9.65629C150.38 9.93915 150.284 10.2557 150.284 10.6059V21.799C150.284 22.1492 150.38 22.4724 150.572 22.7688C150.765 23.0516 151.019 23.2604 151.335 23.3951H145.934C146.25 23.2604 146.504 23.0516 146.696 22.7688C146.889 22.4724 146.985 22.1492 146.985 21.799V10.6059C146.985 10.2557 146.889 9.93915 146.696 9.65629C146.504 9.37343 146.25 9.16465 145.934 9.02996H151.335Z" fill="#02260B"/>
<path d="M157.748 9.02996C158.793 9.02996 159.727 9.21853 160.552 9.59568C161.391 9.97282 162.098 10.4914 162.676 11.1514C163.253 11.7979 163.693 12.559 163.995 13.4345C164.311 14.2965 164.469 15.2192 164.469 16.2024C164.469 17.2396 164.311 18.1959 163.995 19.0714C163.679 19.9469 163.225 20.708 162.634 21.3545C162.043 21.9875 161.336 22.4859 160.511 22.8496C159.686 23.2133 158.765 23.3951 157.748 23.3951C156.731 23.3951 155.803 23.2133 154.965 22.8496C154.14 22.4859 153.433 21.9875 152.842 21.3545C152.264 20.708 151.818 19.9469 151.501 19.0714C151.185 18.1959 151.027 17.2396 151.027 16.2024C151.027 15.2192 151.178 14.2965 151.481 13.4345C151.783 12.559 152.223 11.7979 152.8 11.1514C153.378 10.4914 154.079 9.97282 154.903 9.59568C155.742 9.21853 156.69 9.02996 157.748 9.02996ZM157.748 23.0718C158.326 23.0718 158.827 22.8967 159.253 22.5465C159.693 22.1829 160.05 21.6912 160.325 21.0716C160.614 20.4386 160.827 19.7112 160.964 18.8896C161.116 18.0545 161.191 17.1588 161.191 16.2024C161.191 15.2596 161.116 14.3706 160.964 13.5355C160.827 12.7004 160.614 11.973 160.325 11.3534C160.05 10.7338 159.693 10.2489 159.253 9.89874C158.827 9.53506 158.326 9.35323 157.748 9.35323C157.171 9.35323 156.662 9.53506 156.223 9.89874C155.797 10.2489 155.439 10.7338 155.151 11.3534C154.862 11.973 154.642 12.7004 154.491 13.5355C154.353 14.3706 154.285 15.2596 154.285 16.2024C154.285 17.1588 154.353 18.0545 154.491 18.8896C154.642 19.7112 154.862 20.4386 155.151 21.0716C155.439 21.6912 155.797 22.1829 156.223 22.5465C156.662 22.8967 157.171 23.0718 157.748 23.0718Z" fill="#02260B"/>
<path d="M165.598 17.4955C165.598 18.2633 165.659 18.9906 165.783 19.6775C165.921 20.3645 166.079 20.9773 166.257 21.5161C166.45 22.0414 166.649 22.4725 166.855 22.8092C167.061 23.1325 167.24 23.3278 167.391 23.3951H163.495C163.646 23.3278 163.825 23.1325 164.031 22.8092C164.237 22.4725 164.429 22.0414 164.608 21.5161C164.8 20.9773 164.958 20.3645 165.082 19.6775C165.206 18.9906 165.268 18.2633 165.268 17.4955V12.3636C165.268 11.8249 165.192 11.3602 165.041 10.9696C164.89 10.5789 164.711 10.2557 164.505 9.99976C164.299 9.73037 164.079 9.5216 163.845 9.37343C163.625 9.2118 163.44 9.09731 163.288 9.02996H167.968L174.854 20.9706V14.9094C174.854 14.1416 174.792 13.4143 174.669 12.7273C174.545 12.0404 174.387 11.4343 174.195 10.9089C174.016 10.3836 173.824 9.95935 173.617 9.63608C173.411 9.29935 173.226 9.09731 173.061 9.02996H176.978C176.827 9.09731 176.648 9.29935 176.442 9.63608C176.236 9.95935 176.036 10.3836 175.844 10.9089C175.665 11.4343 175.507 12.0404 175.37 12.7273C175.246 13.4143 175.184 14.1416 175.184 14.9094V20.0614C175.184 20.5867 175.26 21.0447 175.411 21.4353C175.562 21.8259 175.741 22.1559 175.947 22.4253C176.153 22.6947 176.366 22.9102 176.586 23.0718C176.82 23.22 177.012 23.3278 177.163 23.3951H172.483L165.598 11.4545V17.4955Z" fill="#02260B"/>
<path d="M187.32 9.02996C188.405 9.02996 189.374 9.21853 190.227 9.59568C191.079 9.97282 191.8 10.4847 192.391 11.1312C192.996 11.7777 193.456 12.5387 193.773 13.4143C194.089 14.2898 194.247 15.2192 194.247 16.2024C194.247 17.1992 194.089 18.1353 193.773 19.0108C193.456 19.8863 192.996 20.6473 192.391 21.2939C191.8 21.9404 191.079 22.4522 190.227 22.8294C189.374 23.2065 188.405 23.3951 187.32 23.3951H181.65C181.966 23.2604 182.22 23.0516 182.413 22.7688C182.605 22.4724 182.701 22.1492 182.701 21.799V10.6059C182.701 10.2557 182.605 9.93915 182.413 9.65629C182.22 9.37343 181.966 9.16465 181.65 9.02996H187.32ZM186.598 23.0516C187.175 23.0516 187.725 22.8765 188.247 22.5263C188.783 22.1627 189.251 21.671 189.649 21.0514C190.062 20.4318 190.385 19.7045 190.618 18.8694C190.866 18.0343 190.989 17.1453 190.989 16.2024C190.989 15.2596 190.866 14.3773 190.618 13.5557C190.385 12.7206 190.062 11.9932 189.649 11.3736C189.251 10.754 188.783 10.2691 188.247 9.91894C187.725 9.55527 187.175 9.37343 186.598 9.37343H186V23.0516H186.598Z" fill="#02260B"/>
<path d="M199.497 23.0718C200.157 23.0718 200.789 22.9776 201.394 22.789C202.012 22.6004 202.576 22.3512 203.084 22.0414C203.593 21.7182 204.033 21.3478 204.404 20.9302C204.788 20.4992 205.077 20.0412 205.269 19.5563V23.3951H193.972C194.288 23.2604 194.542 23.0516 194.734 22.7688C194.927 22.4724 195.023 22.1492 195.023 21.799V10.6059C195.023 10.2557 194.927 9.93915 194.734 9.65629C194.542 9.37343 194.288 9.16465 193.972 9.02996H204.775V12.8687C204.582 12.3838 204.294 11.9326 203.909 11.5151C203.538 11.084 203.098 10.7069 202.589 10.3836C202.081 10.0604 201.517 9.81119 200.899 9.63608C200.294 9.44751 199.662 9.35323 199.002 9.35323H198.322V15.8792H198.548C199.208 15.8792 199.772 15.8388 200.239 15.7579C200.706 15.6637 201.105 15.5155 201.435 15.3134C201.778 15.1114 202.074 14.8488 202.321 14.5255C202.582 14.2022 202.83 13.8116 203.064 13.3536V18.7279C202.83 18.27 202.582 17.8794 202.321 17.5561C202.074 17.2328 201.778 16.9702 201.435 16.7681C201.105 16.5661 200.706 16.4247 200.239 16.3439C199.772 16.2496 199.208 16.2024 198.548 16.2024H198.322V23.0718H199.497Z" fill="#02260B"/>
<path d="M208.309 11.9798C208.515 12.559 208.817 13.0506 209.216 13.4547C209.628 13.8588 210.082 14.2157 210.577 14.5255C211.072 14.8218 211.58 15.1047 212.102 15.3741C212.638 15.63 213.126 15.9061 213.566 16.2024C214.02 16.4853 214.398 16.8153 214.7 17.1924C215.002 17.5696 215.181 18.0275 215.236 18.5663C215.305 19.2667 215.229 19.9133 215.009 20.5059C214.789 21.0986 214.453 21.6104 213.999 22.0414C213.546 22.459 212.989 22.789 212.329 23.0314C211.683 23.2739 210.962 23.3951 210.164 23.3951C209.711 23.3951 209.285 23.3412 208.886 23.2335C208.488 23.1392 208.123 23.0651 207.794 23.0112C207.464 22.9439 207.161 22.9304 206.886 22.9708C206.612 22.9978 206.364 23.1392 206.144 23.3951V19.2331C206.35 19.6371 206.612 20.0682 206.928 20.5261C207.258 20.9706 207.615 21.3814 208 21.7586C208.398 22.1357 208.811 22.4522 209.237 22.7082C209.677 22.9506 210.103 23.0718 210.515 23.0718C210.968 23.0718 211.346 22.9708 211.649 22.7688C211.951 22.5667 212.178 22.3108 212.329 22.001C212.48 21.6912 212.556 21.3545 212.556 20.9908C212.57 20.6137 212.501 20.2567 212.35 19.92C212.185 19.5428 211.924 19.2196 211.566 18.9502C211.209 18.6808 210.797 18.4181 210.329 18.1622C209.876 17.9063 209.402 17.6437 208.907 17.3743C208.412 17.0914 207.945 16.7681 207.505 16.4045C207.065 16.0408 206.68 15.6165 206.35 15.1316C206.021 14.6332 205.801 14.0339 205.691 13.3334C205.567 12.633 205.615 12.0202 205.835 11.4949C206.055 10.9561 206.385 10.5049 206.825 10.1412C207.264 9.77751 207.78 9.50139 208.371 9.31282C208.976 9.12425 209.601 9.02996 210.247 9.02996C210.755 9.02996 211.209 9.08384 211.608 9.19159C212.02 9.28588 212.384 9.3667 212.7 9.43404C213.016 9.48792 213.298 9.50139 213.546 9.47445C213.807 9.44751 214.047 9.29935 214.267 9.02996V12.8687C214.02 12.5051 213.731 12.1145 213.401 11.6969C213.071 11.2794 212.714 10.9022 212.329 10.5655C211.944 10.2153 211.539 9.92568 211.113 9.6967C210.7 9.46772 210.295 9.35323 209.896 9.35323C209.553 9.35323 209.257 9.44078 209.01 9.61588C208.763 9.79098 208.57 10.0132 208.433 10.2826C208.309 10.5385 208.233 10.8214 208.206 11.1312C208.178 11.441 208.213 11.7238 208.309 11.9798Z" fill="#02260B"/>
<path d="M226.175 10.6059C226.175 10.2557 226.078 9.93915 225.886 9.65629C225.694 9.37343 225.439 9.16465 225.123 9.02996H230.525C230.209 9.16465 229.954 9.37343 229.762 9.65629C229.569 9.93915 229.473 10.2557 229.473 10.6059V18.3643H229.453C229.425 19.0647 229.267 19.7247 228.978 20.3443C228.69 20.9504 228.305 21.4824 227.824 21.9404C227.357 22.3849 226.8 22.7418 226.154 23.0112C225.522 23.2671 224.848 23.3951 224.134 23.3951C223.226 23.3951 222.388 23.1931 221.618 22.789C220.849 22.3714 220.223 21.8192 219.742 21.1322L222.752 18.7077C222.546 19.3812 222.436 19.9873 222.422 20.5261C222.422 21.0649 222.491 21.5229 222.629 21.9C222.78 22.2771 222.986 22.5667 223.247 22.7688C223.508 22.9708 223.804 23.0718 224.134 23.0718C224.532 23.0718 224.862 22.991 225.123 22.8294C225.384 22.6543 225.59 22.3916 225.742 22.0414C225.907 21.6778 226.017 21.2131 226.072 20.6473C226.14 20.0816 226.175 19.4014 226.175 18.6067V10.6059Z" fill="#02260B"/>
<path d="M236.723 23.0718C237.383 23.0718 238.015 22.9776 238.62 22.789C239.239 22.6004 239.802 22.3512 240.311 22.0414C240.819 21.7182 241.259 21.3478 241.63 20.9302C242.015 20.4992 242.304 20.0412 242.496 19.5563V23.3951H231.198C231.514 23.2604 231.768 23.0516 231.961 22.7688C232.153 22.4724 232.25 22.1492 232.25 21.799V10.6059C232.25 10.2557 232.153 9.93915 231.961 9.65629C231.768 9.37343 231.514 9.16465 231.198 9.02996H242.001V12.8687C241.809 12.3838 241.52 11.9326 241.135 11.5151C240.764 11.084 240.324 10.7069 239.816 10.3836C239.307 10.0604 238.744 9.81119 238.125 9.63608C237.52 9.44751 236.888 9.35323 236.229 9.35323H235.548V15.8792H235.775C236.435 15.8792 236.998 15.8388 237.466 15.7579C237.933 15.6637 238.331 15.5155 238.661 15.3134C239.005 15.1114 239.3 14.8488 239.548 14.5255C239.809 14.2022 240.056 13.8116 240.29 13.3536V18.7279C240.056 18.27 239.809 17.8794 239.548 17.5561C239.3 17.2328 239.005 16.9702 238.661 16.7681C238.331 16.5661 237.933 16.4247 237.466 16.3439C236.998 16.2496 236.435 16.2024 235.775 16.2024H235.548V23.0718H236.723Z" fill="#02260B"/>
<path d="M254.009 14.9094C254.009 14.1416 253.94 13.4143 253.803 12.7273C253.679 12.0404 253.521 11.4343 253.328 10.9089C253.15 10.3836 252.957 9.95935 252.751 9.63608C252.545 9.29935 252.366 9.09731 252.215 9.02996H256.112C255.961 9.09731 255.782 9.29935 255.576 9.63608C255.37 9.95935 255.17 10.3836 254.978 10.9089C254.799 11.4343 254.648 12.0404 254.524 12.7273C254.401 13.4143 254.339 14.1416 254.339 14.9094V17.9602C254.339 18.7145 254.229 19.4216 254.009 20.0816C253.789 20.7282 253.466 21.3006 253.04 21.799C252.628 22.2973 252.119 22.688 251.514 22.9708C250.909 23.2537 250.222 23.3951 249.453 23.3951C248.683 23.3951 247.961 23.2537 247.288 22.9708C246.628 22.688 246.044 22.2973 245.535 21.799C245.027 21.3006 244.628 20.7282 244.34 20.0816C244.051 19.4216 243.907 18.7145 243.907 17.9602V10.6059C243.907 10.2557 243.811 9.93915 243.618 9.65629C243.426 9.37343 243.171 9.16465 242.855 9.02996H248.257C247.941 9.16465 247.686 9.37343 247.494 9.65629C247.302 9.93915 247.205 10.2557 247.205 10.6059V17.9602C247.233 18.5933 247.315 19.2061 247.453 19.7988C247.59 20.3914 247.783 20.9167 248.03 21.3747C248.291 21.8192 248.607 22.1829 248.978 22.4657C249.349 22.7351 249.782 22.8698 250.277 22.8698C250.772 22.8698 251.246 22.7486 251.7 22.5061C252.153 22.2637 252.545 21.9269 252.875 21.4959C253.219 21.0649 253.493 20.5531 253.7 19.9604C253.906 19.3543 254.009 18.6875 254.009 17.9602V14.9094Z" fill="#02260B"/>
<path d="M259.016 17.4955C259.016 18.2633 259.078 18.9906 259.202 19.6775C259.339 20.3645 259.497 20.9773 259.676 21.5161C259.868 22.0414 260.067 22.4725 260.274 22.8092C260.48 23.1325 260.659 23.3278 260.81 23.3951H256.913C257.064 23.3278 257.243 23.1325 257.449 22.8092C257.655 22.4725 257.848 22.0414 258.026 21.5161C258.219 20.9773 258.377 20.3645 258.501 19.6775C258.624 18.9906 258.686 18.2633 258.686 17.4955V12.3636C258.686 11.8249 258.611 11.3602 258.459 10.9696C258.308 10.5789 258.13 10.2557 257.923 9.99976C257.717 9.73037 257.497 9.5216 257.264 9.37343C257.044 9.2118 256.858 9.09731 256.707 9.02996H261.387L268.273 20.9706V14.9094C268.273 14.1416 268.211 13.4143 268.087 12.7273C267.964 12.0404 267.806 11.4343 267.613 10.9089C267.434 10.3836 267.242 9.95935 267.036 9.63608C266.83 9.29935 266.644 9.09731 266.479 9.02996H270.396C270.245 9.09731 270.066 9.29935 269.86 9.63608C269.654 9.95935 269.455 10.3836 269.262 10.9089C269.084 11.4343 268.926 12.0404 268.788 12.7273C268.665 13.4143 268.603 14.1416 268.603 14.9094V20.0614C268.603 20.5867 268.678 21.0447 268.829 21.4353C268.981 21.8259 269.159 22.1559 269.366 22.4253C269.572 22.6947 269.785 22.9102 270.005 23.0718C270.238 23.22 270.431 23.3278 270.582 23.3951H265.902L259.016 11.4545V17.4955Z" fill="#02260B"/>
<path d="M276.668 23.0718C277.328 23.0718 277.96 22.9776 278.565 22.789C279.183 22.6004 279.747 22.3512 280.255 22.0414C280.764 21.7182 281.203 21.3478 281.575 20.9302C281.959 20.4992 282.248 20.0412 282.44 19.5563V23.3951H271.143C271.459 23.2604 271.713 23.0516 271.905 22.7688C272.098 22.4724 272.194 22.1492 272.194 21.799V10.6059C272.194 10.2557 272.098 9.93915 271.905 9.65629C271.713 9.37343 271.459 9.16465 271.143 9.02996H281.946V12.8687C281.753 12.3838 281.465 11.9326 281.08 11.5151C280.709 11.084 280.269 10.7069 279.76 10.3836C279.252 10.0604 278.688 9.81119 278.07 9.63608C277.465 9.44751 276.833 9.35323 276.173 9.35323H275.493V15.8792H275.719C276.379 15.8792 276.943 15.8388 277.41 15.7579C277.877 15.6637 278.276 15.5155 278.606 15.3134C278.949 15.1114 279.245 14.8488 279.492 14.5255C279.753 14.2022 280.001 13.8116 280.234 13.3536V18.7279C280.001 18.27 279.753 17.8794 279.492 17.5561C279.245 17.2328 278.949 16.9702 278.606 16.7681C278.276 16.5661 277.877 16.4247 277.41 16.3439C276.943 16.2496 276.379 16.2024 275.719 16.2024H275.493V23.0718H276.668Z" fill="#02260B"/>
<path d="M285.48 11.9798C285.686 12.559 285.988 13.0506 286.387 13.4547C286.799 13.8588 287.253 14.2157 287.748 14.5255C288.242 14.8218 288.751 15.1047 289.273 15.3741C289.809 15.63 290.297 15.9061 290.737 16.2024C291.191 16.4853 291.569 16.8153 291.871 17.1924C292.173 17.5696 292.352 18.0275 292.407 18.5663C292.476 19.2667 292.4 19.9133 292.18 20.5059C291.96 21.0986 291.624 21.6104 291.17 22.0414C290.716 22.459 290.16 22.789 289.5 23.0314C288.854 23.2739 288.133 23.3951 287.335 23.3951C286.882 23.3951 286.456 23.3412 286.057 23.2335C285.659 23.1392 285.294 23.0651 284.965 23.0112C284.635 22.9439 284.332 22.9304 284.057 22.9708C283.782 22.9978 283.535 23.1392 283.315 23.3951V19.2331C283.521 19.6371 283.782 20.0682 284.099 20.5261C284.428 20.9706 284.786 21.3814 285.171 21.7586C285.569 22.1357 285.982 22.4522 286.408 22.7082C286.847 22.9506 287.274 23.0718 287.686 23.0718C288.139 23.0718 288.517 22.9708 288.82 22.7688C289.122 22.5667 289.349 22.3108 289.5 22.001C289.651 21.6912 289.727 21.3545 289.727 20.9908C289.741 20.6137 289.672 20.2567 289.521 19.92C289.356 19.5428 289.095 19.2196 288.737 18.9502C288.38 18.6808 287.968 18.4181 287.5 18.1622C287.047 17.9063 286.573 17.6437 286.078 17.3743C285.583 17.0914 285.116 16.7681 284.676 16.4045C284.236 16.0408 283.851 15.6165 283.521 15.1316C283.191 14.6332 282.972 14.0339 282.862 13.3334C282.738 12.633 282.786 12.0202 283.006 11.4949C283.226 10.9561 283.556 10.5049 283.996 10.1412C284.435 9.77751 284.951 9.50139 285.542 9.31282C286.146 9.12425 286.772 9.02996 287.418 9.02996C287.926 9.02996 288.38 9.08384 288.779 9.19159C289.191 9.28588 289.555 9.3667 289.871 9.43404C290.187 9.48792 290.469 9.50139 290.716 9.47445C290.978 9.44751 291.218 9.29935 291.438 9.02996V12.8687C291.191 12.5051 290.902 12.1145 290.572 11.6969C290.242 11.2794 289.885 10.9022 289.5 10.5655C289.115 10.2153 288.71 9.92568 288.284 9.6967C287.871 9.46772 287.466 9.35323 287.067 9.35323C286.724 9.35323 286.428 9.44078 286.181 9.61588C285.933 9.79098 285.741 10.0132 285.604 10.2826C285.48 10.5385 285.404 10.8214 285.377 11.1312C285.349 11.441 285.384 11.7238 285.48 11.9798Z" fill="#02260B"/>
<path d="M58.0829 34.7393C58.0829 34.1169 57.9243 33.5886 57.6071 33.1546C57.2898 32.7123 56.8515 32.4912 56.2922 32.4912C55.7078 32.4912 55.257 32.6918 54.9397 33.0931C54.6309 33.4944 54.4764 34.0432 54.4764 34.7393C54.4764 35.3945 54.6392 35.9309 54.9648 36.3486C55.2904 36.7663 55.7328 36.9751 56.2922 36.9751C56.6011 36.9751 56.8724 36.9137 57.1062 36.7908C57.3399 36.668 57.5277 36.5001 57.6697 36.2872C57.8116 36.0742 57.9159 35.8367 57.9827 35.5747C58.0495 35.3044 58.0829 35.0259 58.0829 34.7393ZM53.0989 40.2552V31.5575H54.4514V32.4175H54.4764C54.6684 32.0653 54.9397 31.8073 55.2904 31.6435C55.6494 31.4715 56.0459 31.3855 56.48 31.3855C57.4568 31.3855 58.204 31.7049 58.7216 32.3438C59.2475 32.9744 59.5105 33.7811 59.5105 34.7639C59.5105 35.1979 59.4521 35.6156 59.3352 36.0169C59.2266 36.41 59.0555 36.7622 58.8217 37.0734C58.5963 37.3846 58.3041 37.6303 57.9452 37.8105C57.5862 37.9907 57.1771 38.0807 56.718 38.0807C56.2755 38.0807 55.8581 37.9988 55.4657 37.8351C55.0733 37.6713 54.7686 37.4215 54.5515 37.0857H54.5265V40.2552H53.0989Z" fill="#02260B"/>
<path d="M63.6846 36.9751C63.9935 36.9751 64.2648 36.9137 64.4986 36.7908C64.7323 36.6598 64.9244 36.4878 65.0746 36.2749C65.2249 36.062 65.3376 35.8244 65.4127 35.5624C65.4879 35.2921 65.5254 35.0136 65.5254 34.727C65.5254 34.4404 65.4879 34.166 65.4127 33.9039C65.3376 33.6418 65.2249 33.4043 65.0746 33.1914C64.9244 32.9703 64.7323 32.7983 64.4986 32.6754C64.2648 32.5526 63.9935 32.4912 63.6846 32.4912C63.3757 32.4912 63.1044 32.5526 62.8707 32.6754C62.6369 32.7983 62.4449 32.9703 62.2946 33.1914C62.1443 33.4043 62.0316 33.6418 61.9565 33.9039C61.8814 34.166 61.8438 34.4404 61.8438 34.727C61.8438 35.0136 61.8814 35.2921 61.9565 35.5624C62.0316 35.8244 62.1443 36.062 62.2946 36.2749C62.4449 36.4878 62.6369 36.6598 62.8707 36.7908C63.1128 36.9137 63.3841 36.9751 63.6846 36.9751ZM63.6846 38.0807C62.6661 38.0807 61.8647 37.7736 61.2803 37.1594C60.7043 36.537 60.4162 35.7262 60.4162 34.727C60.4162 33.736 60.7043 32.9334 61.2803 32.3192C61.8647 31.6968 62.6661 31.3855 63.6846 31.3855C64.7031 31.3855 65.5004 31.6968 66.0764 32.3192C66.6608 32.9334 66.953 33.736 66.953 34.727C66.953 35.7262 66.6608 36.537 66.0764 37.1594C65.5004 37.7736 64.7031 38.0807 63.6846 38.0807Z" fill="#02260B"/>
<path d="M73.8251 31.5575V37.9088H72.4226V37.0243H72.3975C72.2222 37.3355 71.9634 37.5894 71.6211 37.7859C71.2788 37.9825 70.924 38.0807 70.5567 38.0807C69.7219 38.0807 69.1082 37.876 68.7159 37.4665C68.3318 37.0488 68.1398 36.4223 68.1398 35.5869V31.5575H69.5674V35.4518C69.5674 35.9923 69.6718 36.3814 69.8805 36.6189C70.0892 36.8564 70.3981 36.9751 70.8071 36.9751C71.3665 36.9751 71.7714 36.8195 72.0218 36.5083C72.2723 36.1971 72.3975 35.7753 72.3975 35.243V31.5575H73.8251Z" fill="#02260B"/>
<path d="M75.3305 37.9088V31.5575H76.6705V32.786H76.6955C76.7372 32.614 76.8166 32.4461 76.9334 32.2823C77.0503 32.1185 77.1964 31.9711 77.3717 31.8401C77.5554 31.7009 77.7516 31.5903 77.9603 31.5084C78.169 31.4265 78.3777 31.3855 78.5864 31.3855C78.7534 31.3855 78.9037 31.3937 79.0372 31.4101C79.079 31.4183 79.1082 31.4224 79.1249 31.4224V32.7737C79.0915 32.7655 79.0456 32.7573 78.9871 32.7492C78.7701 32.7246 78.6115 32.7123 78.5113 32.7123C78.002 32.7123 77.5804 32.9048 77.2465 33.2897C76.9209 33.6746 76.7581 34.207 76.7581 34.8867V37.9088H75.3305Z" fill="#02260B"/>
<path d="M83.2559 37.9088V29.1374H84.6835V37.9088H83.2559Z" fill="#02260B"/>
<path d="M92.112 35.0955H87.3534C87.3534 35.6279 87.5037 36.0742 87.8042 36.4346C88.1048 36.7949 88.5347 36.9751 89.094 36.9751C89.8955 36.9751 90.4215 36.623 90.6719 35.9186H92.0243C91.8741 36.5984 91.5276 37.1307 90.985 37.5156C90.4507 37.8924 89.8204 38.0807 89.094 38.0807C88.1006 38.0807 87.3242 37.7736 86.7649 37.1594C86.2055 36.5452 85.9258 35.7384 85.9258 34.7393C85.9258 34.2888 85.9968 33.863 86.1387 33.4617C86.289 33.0522 86.5019 32.6918 86.7774 32.3806C87.0529 32.0694 87.3826 31.8278 87.7667 31.6558C88.159 31.4756 88.589 31.3855 89.0565 31.3855C89.5156 31.3855 89.9331 31.4715 90.3087 31.6435C90.6928 31.8155 91.0225 32.053 91.298 32.356C91.5735 32.6591 91.7822 33.0071 91.9242 33.4002C92.0661 33.7934 92.137 34.2029 92.137 34.6287C92.137 34.7843 92.1287 34.9399 92.112 35.0955ZM87.3534 34.1742H90.6844C90.6594 33.7074 90.4966 33.3102 90.196 32.9826C89.9039 32.655 89.524 32.4912 89.0565 32.4912C88.5723 32.4912 88.1715 32.6509 87.8543 32.9703C87.5371 33.2897 87.3701 33.691 87.3534 34.1742Z" fill="#02260B"/>
<path d="M98.4482 30.3905V36.6557H99.9885C100.581 36.6557 101.074 36.5779 101.466 36.4223C101.859 36.2667 102.163 36.0497 102.38 35.7712C102.597 35.4846 102.748 35.157 102.831 34.7884C102.923 34.4199 102.969 33.9981 102.969 33.5231C102.969 33.0481 102.923 32.6263 102.831 32.2578C102.748 31.881 102.597 31.5534 102.38 31.275C102.163 30.9965 101.859 30.7795 101.466 30.6239C101.074 30.4683 100.581 30.3905 99.9885 30.3905H98.4482ZM96.8829 37.9088V29.1374H100.59C101.257 29.1374 101.842 29.2521 102.343 29.4814C102.844 29.7025 103.257 30.0137 103.582 30.415C103.908 30.8082 104.146 31.2709 104.296 31.8032C104.455 32.3356 104.534 32.9089 104.534 33.5231C104.534 34.1373 104.455 34.7106 104.296 35.243C104.146 35.7753 103.908 36.2421 103.582 36.6434C103.257 37.0365 102.844 37.3478 102.343 37.5771C101.842 37.7982 101.257 37.9088 100.59 37.9088H96.8829Z" fill="#02260B"/>
<path d="M107.511 30.6853L108.638 28.9286H110.328L108.55 30.6853H107.511ZM111.593 35.0955H106.834C106.834 35.6279 106.985 36.0742 107.285 36.4346C107.586 36.7949 108.016 36.9751 108.575 36.9751C109.376 36.9751 109.902 36.623 110.153 35.9186H111.505C111.355 36.5984 111.009 37.1307 110.466 37.5156C109.932 37.8924 109.301 38.0807 108.575 38.0807C107.582 38.0807 106.805 37.7736 106.246 37.1594C105.686 36.5452 105.407 35.7384 105.407 34.7393C105.407 34.2888 105.478 33.863 105.62 33.4617C105.77 33.0522 105.983 32.6918 106.258 32.3806C106.534 32.0694 106.864 31.8278 107.248 31.6558C107.64 31.4756 108.07 31.3855 108.537 31.3855C108.997 31.3855 109.414 31.4715 109.79 31.6435C110.174 31.8155 110.503 32.053 110.779 32.356C111.054 32.6591 111.263 33.0071 111.405 33.4002C111.547 33.7934 111.618 34.2029 111.618 34.6287C111.618 34.7843 111.61 34.9399 111.593 35.0955ZM106.834 34.1742H110.165C110.14 33.7074 109.978 33.3102 109.677 32.9826C109.385 32.655 109.005 32.4912 108.537 32.4912C108.053 32.4912 107.653 32.6509 107.335 32.9703C107.018 33.2897 106.851 33.691 106.834 34.1742Z" fill="#02260B"/>
<path d="M114.394 37.9088L112.04 31.5575H113.592L115.233 36.4346H115.258L116.836 31.5575H118.313L115.997 37.9088H114.394Z" fill="#02260B"/>
<path d="M125.045 35.0955H120.286C120.286 35.6279 120.437 36.0742 120.737 36.4346C121.038 36.7949 121.468 36.9751 122.027 36.9751C122.828 36.9751 123.354 36.623 123.605 35.9186H124.957C124.807 36.5984 124.461 37.1307 123.918 37.5156C123.384 37.8924 122.753 38.0807 122.027 38.0807C121.034 38.0807 120.257 37.7736 119.698 37.1594C119.138 36.5452 118.859 35.7384 118.859 34.7393C118.859 34.2888 118.93 33.863 119.072 33.4617C119.222 33.0522 119.435 32.6918 119.71 32.3806C119.986 32.0694 120.316 31.8278 120.7 31.6558C121.092 31.4756 121.522 31.3855 121.989 31.3855C122.449 31.3855 122.866 31.4715 123.242 31.6435C123.626 31.8155 123.955 32.053 124.231 32.356C124.506 32.6591 124.715 33.0071 124.857 33.4002C124.999 33.7934 125.07 34.2029 125.07 34.6287C125.07 34.7843 125.062 34.9399 125.045 35.0955ZM120.286 34.1742H123.617C123.592 33.7074 123.43 33.3102 123.129 32.9826C122.837 32.655 122.457 32.4912 121.989 32.4912C121.505 32.4912 121.105 32.6509 120.787 32.9703C120.47 33.2897 120.303 33.691 120.286 34.1742Z" fill="#02260B"/>
<path d="M126.168 37.9088V29.1374H127.595V37.9088H126.168Z" fill="#02260B"/>
<path d="M132.119 36.9751C132.428 36.9751 132.699 36.9137 132.933 36.7908C133.166 36.6598 133.358 36.4878 133.509 36.2749C133.659 36.062 133.772 35.8244 133.847 35.5624C133.922 35.2921 133.959 35.0136 133.959 34.727C133.959 34.4404 133.922 34.166 133.847 33.9039C133.772 33.6418 133.659 33.4043 133.509 33.1914C133.358 32.9703 133.166 32.7983 132.933 32.6754C132.699 32.5526 132.428 32.4912 132.119 32.4912C131.81 32.4912 131.538 32.5526 131.305 32.6754C131.071 32.7983 130.879 32.9703 130.729 33.1914C130.578 33.4043 130.466 33.6418 130.391 33.9039C130.315 34.166 130.278 34.4404 130.278 34.727C130.278 35.0136 130.315 35.2921 130.391 35.5624C130.466 35.8244 130.578 36.062 130.729 36.2749C130.879 36.4878 131.071 36.6598 131.305 36.7908C131.547 36.9137 131.818 36.9751 132.119 36.9751ZM132.119 38.0807C131.1 38.0807 130.299 37.7736 129.714 37.1594C129.138 36.537 128.85 35.7262 128.85 34.727C128.85 33.736 129.138 32.9334 129.714 32.3192C130.299 31.6968 131.1 31.3855 132.119 31.3855C133.137 31.3855 133.934 31.6968 134.51 32.3192C135.095 32.9334 135.387 33.736 135.387 34.727C135.387 35.7262 135.095 36.537 134.51 37.1594C133.934 37.7736 133.137 38.0807 132.119 38.0807Z" fill="#02260B"/>
<path d="M141.595 34.7393C141.595 34.1169 141.437 33.5886 141.12 33.1546C140.802 32.7123 140.364 32.4912 139.805 32.4912C139.22 32.4912 138.77 32.6918 138.452 33.0931C138.143 33.4944 137.989 34.0432 137.989 34.7393C137.989 35.3945 138.152 35.9309 138.477 36.3486C138.803 36.7663 139.245 36.9751 139.805 36.9751C140.114 36.9751 140.385 36.9137 140.619 36.7908C140.852 36.668 141.04 36.5001 141.182 36.2872C141.324 36.0742 141.428 35.8367 141.495 35.5747C141.562 35.3044 141.595 35.0259 141.595 34.7393ZM136.611 40.2552V31.5575H137.964V32.4175H137.989C138.181 32.0653 138.452 31.8073 138.803 31.6435C139.162 31.4715 139.558 31.3855 139.993 31.3855C140.969 31.3855 141.716 31.7049 142.234 32.3438C142.76 32.9744 143.023 33.7811 143.023 34.7639C143.023 35.1979 142.965 35.6156 142.848 36.0169C142.739 36.41 142.568 36.7622 142.334 37.0734C142.109 37.3846 141.817 37.6303 141.458 37.8105C141.099 37.9907 140.69 38.0807 140.23 38.0807C139.788 38.0807 139.371 37.9988 138.978 37.8351C138.586 37.6713 138.281 37.4215 138.064 37.0857H138.039V40.2552H136.611Z" fill="#02260B"/>
<path d="M149.251 34.7393C149.251 34.1169 149.092 33.5886 148.775 33.1546C148.458 32.7123 148.019 32.4912 147.46 32.4912C146.876 32.4912 146.425 32.6918 146.108 33.0931C145.799 33.4944 145.644 34.0432 145.644 34.7393C145.644 35.3945 145.807 35.9309 146.133 36.3486C146.458 36.7663 146.901 36.9751 147.46 36.9751C147.769 36.9751 148.04 36.9137 148.274 36.7908C148.508 36.668 148.696 36.5001 148.838 36.2872C148.98 36.0742 149.084 35.8367 149.151 35.5747C149.217 35.3044 149.251 35.0259 149.251 34.7393ZM144.267 40.2552V31.5575H145.619V32.4175H145.644C145.836 32.0653 146.108 31.8073 146.458 31.6435C146.817 31.4715 147.214 31.3855 147.648 31.3855C148.625 31.3855 149.372 31.7049 149.889 32.3438C150.415 32.9744 150.678 33.7811 150.678 34.7639C150.678 35.1979 150.62 35.6156 150.503 36.0169C150.395 36.41 150.223 36.7622 149.99 37.0734C149.764 37.3846 149.472 37.6303 149.113 37.8105C148.754 37.9907 148.345 38.0807 147.886 38.0807C147.443 38.0807 147.026 37.9988 146.634 37.8351C146.241 37.6713 145.937 37.4215 145.719 37.0857H145.694V40.2552H144.267Z" fill="#02260B"/>
<path d="M157.758 35.0955H152.999C152.999 35.6279 153.15 36.0742 153.45 36.4346C153.751 36.7949 154.18 36.9751 154.74 36.9751C155.541 36.9751 156.067 36.623 156.318 35.9186H157.67C157.52 36.5984 157.173 37.1307 156.631 37.5156C156.096 37.8924 155.466 38.0807 154.74 38.0807C153.746 38.0807 152.97 37.7736 152.411 37.1594C151.851 36.5452 151.572 35.7384 151.572 34.7393C151.572 34.2888 151.643 33.863 151.785 33.4617C151.935 33.0522 152.148 32.6918 152.423 32.3806C152.699 32.0694 153.028 31.8278 153.412 31.6558C153.805 31.4756 154.235 31.3855 154.702 31.3855C155.161 31.3855 155.579 31.4715 155.955 31.6435C156.339 31.8155 156.668 32.053 156.944 32.356C157.219 32.6591 157.428 33.0071 157.57 33.4002C157.712 33.7934 157.783 34.2029 157.783 34.6287C157.783 34.7843 157.774 34.9399 157.758 35.0955ZM152.999 34.1742H156.33C156.305 33.7074 156.142 33.3102 155.842 32.9826C155.55 32.655 155.17 32.4912 154.702 32.4912C154.218 32.4912 153.817 32.6509 153.5 32.9703C153.183 33.2897 153.016 33.691 152.999 34.1742Z" fill="#02260B"/>
<path d="M158.843 37.9088V31.5575H160.195V32.442H160.233C160.467 32.0981 160.738 31.836 161.047 31.6558C161.356 31.4756 161.748 31.3855 162.224 31.3855C162.642 31.3855 163.013 31.4756 163.339 31.6558C163.664 31.8278 163.898 32.0899 164.04 32.442C164.29 32.0981 164.578 31.836 164.904 31.6558C165.23 31.4756 165.618 31.3855 166.069 31.3855C166.778 31.3855 167.317 31.5575 167.684 31.9015C168.051 32.2373 168.235 32.7778 168.235 33.5231V37.9088H166.807V34.1988C166.807 33.9039 166.795 33.6582 166.77 33.4617C166.753 33.2651 166.707 33.0972 166.632 32.958C166.557 32.8106 166.436 32.6959 166.269 32.614C166.11 32.5321 165.897 32.4912 165.63 32.4912C165.163 32.4912 164.816 32.6386 164.591 32.9334C164.366 33.2201 164.253 33.6378 164.253 34.1865V37.9088H162.825V33.8302C162.825 33.3716 162.738 33.0358 162.562 32.8229C162.395 32.6017 162.103 32.4912 161.686 32.4912C161.293 32.4912 160.959 32.6386 160.684 32.9334C160.408 33.2283 160.271 33.6296 160.271 34.1373V37.9088H158.843Z" fill="#02260B"/>
<path d="M175.612 35.0955H170.854C170.854 35.6279 171.004 36.0742 171.305 36.4346C171.605 36.7949 172.035 36.9751 172.594 36.9751C173.396 36.9751 173.922 36.623 174.172 35.9186H175.525C175.374 36.5984 175.028 37.1307 174.485 37.5156C173.951 37.8924 173.321 38.0807 172.594 38.0807C171.601 38.0807 170.824 37.7736 170.265 37.1594C169.706 36.5452 169.426 35.7384 169.426 34.7393C169.426 34.2888 169.497 33.863 169.639 33.4617C169.789 33.0522 170.002 32.6918 170.278 32.3806C170.553 32.0694 170.883 31.8278 171.267 31.6558C171.659 31.4756 172.089 31.3855 172.557 31.3855C173.016 31.3855 173.433 31.4715 173.809 31.6435C174.193 31.8155 174.523 32.053 174.798 32.356C175.074 32.6591 175.283 33.0071 175.424 33.4002C175.566 33.7934 175.637 34.2029 175.637 34.6287C175.637 34.7843 175.629 34.9399 175.612 35.0955ZM170.854 34.1742H174.185C174.16 33.7074 173.997 33.3102 173.696 32.9826C173.404 32.655 173.024 32.4912 172.557 32.4912C172.073 32.4912 171.672 32.6509 171.355 32.9703C171.037 33.2897 170.87 33.691 170.854 34.1742Z" fill="#02260B"/>
<path d="M176.698 37.9088V31.5575H178.05V32.4912L178.075 32.5157C178.292 32.1636 178.576 31.8892 178.927 31.6927C179.277 31.4879 179.665 31.3855 180.091 31.3855C180.809 31.3855 181.368 31.5739 181.769 31.9506C182.178 32.3192 182.383 32.8515 182.383 33.5477V37.9088H180.955V33.9162C180.947 33.4248 180.838 33.0645 180.63 32.8351C180.429 32.6058 180.116 32.4912 179.69 32.4912C179.223 32.4912 178.843 32.6509 178.551 32.9703C178.267 33.2897 178.125 33.6869 178.125 34.1619V37.9088H176.698Z" fill="#02260B"/>
<path d="M183.237 32.6017V31.5575H184.314V29.6534H185.742V31.5575H187.031V32.6017H185.742V35.9923C185.742 36.3199 185.783 36.5492 185.867 36.6803C185.95 36.8031 186.138 36.8646 186.43 36.8646C186.697 36.8646 186.898 36.8482 187.031 36.8154V37.8965C186.956 37.9047 186.852 37.917 186.718 37.9333C186.451 37.9579 186.247 37.9702 186.105 37.9702C185.404 37.9702 184.932 37.8432 184.69 37.5894C184.456 37.3355 184.331 36.9219 184.314 36.3486V32.6017H183.237Z" fill="#02260B"/>
<path d="M190.893 30.4642V29.1374H198.131V30.4642H195.288V37.9088H193.723V30.4642H190.893Z" fill="#02260B"/>
<path d="M203.446 35.0955H198.687C198.687 35.6279 198.837 36.0742 199.138 36.4346C199.438 36.7949 199.868 36.9751 200.428 36.9751C201.229 36.9751 201.755 36.623 202.006 35.9186H203.358C203.208 36.5984 202.861 37.1307 202.319 37.5156C201.784 37.8924 201.154 38.0807 200.428 38.0807C199.434 38.0807 198.658 37.7736 198.099 37.1594C197.539 36.5452 197.26 35.7384 197.26 34.7393C197.26 34.2888 197.331 33.863 197.472 33.4617C197.623 33.0522 197.836 32.6918 198.111 32.3806C198.387 32.0694 198.716 31.8278 199.1 31.6558C199.493 31.4756 199.923 31.3855 200.39 31.3855C200.849 31.3855 201.267 31.4715 201.642 31.6435C202.027 31.8155 202.356 32.053 202.632 32.356C202.907 32.6591 203.116 33.0071 203.258 33.4002C203.4 33.7934 203.471 34.2029 203.471 34.6287C203.471 34.7843 203.462 34.9399 203.446 35.0955ZM198.687 34.1742H202.018C201.993 33.7074 201.83 33.3102 201.53 32.9826C201.238 32.655 200.858 32.4912 200.39 32.4912C199.906 32.4912 199.505 32.6509 199.188 32.9703C198.871 33.2897 198.704 33.691 198.687 34.1742Z" fill="#02260B"/>
<path d="M204.531 37.9088V31.5575H205.871V32.786H205.896C205.938 32.614 206.017 32.4461 206.134 32.2823C206.251 32.1185 206.397 31.9711 206.572 31.8401C206.756 31.7009 206.952 31.5903 207.161 31.5084C207.369 31.4265 207.578 31.3855 207.787 31.3855C207.954 31.3855 208.104 31.3937 208.238 31.4101C208.279 31.4183 208.309 31.4224 208.325 31.4224V32.7737C208.292 32.7655 208.246 32.7573 208.188 32.7492C207.971 32.7246 207.812 32.7123 207.712 32.7123C207.202 32.7123 206.781 32.9048 206.447 33.2897C206.121 33.6746 205.959 34.207 205.959 34.8867V37.9088H204.531Z" fill="#02260B"/>
<path d="M208.933 37.9088V31.5575H210.273V32.786H210.298C210.34 32.614 210.419 32.4461 210.536 32.2823C210.653 32.1185 210.799 31.9711 210.975 31.8401C211.158 31.7009 211.354 31.5903 211.563 31.5084C211.772 31.4265 211.981 31.3855 212.189 31.3855C212.356 31.3855 212.507 31.3937 212.64 31.4101C212.682 31.4183 212.711 31.4224 212.728 31.4224V32.7737C212.694 32.7655 212.648 32.7573 212.59 32.7492C212.373 32.7246 212.214 32.7123 212.114 32.7123C211.605 32.7123 211.183 32.9048 210.849 33.2897C210.524 33.6746 210.361 34.207 210.361 34.8867V37.9088H208.933Z" fill="#02260B"/>
<path d="M213.373 37.9088V31.5575H214.801V37.9088H213.373ZM213.373 30.4642V29.1374H214.801V30.4642H213.373Z" fill="#02260B"/>
<path d="M215.705 32.6017V31.5575H216.782V29.6534H218.21V31.5575H219.5V32.6017H218.21V35.9923C218.21 36.3199 218.252 36.5492 218.335 36.6803C218.419 36.8031 218.606 36.8646 218.899 36.8646C219.166 36.8646 219.366 36.8482 219.5 36.8154V37.8965C219.425 37.9047 219.32 37.917 219.187 37.9333C218.919 37.9579 218.715 37.9702 218.573 37.9702C217.872 37.9702 217.4 37.8432 217.158 37.5894C216.924 37.3355 216.799 36.9219 216.782 36.3486V32.6017H215.705Z" fill="#02260B"/>
<path d="M223.494 36.9751C223.803 36.9751 224.075 36.9137 224.308 36.7908C224.542 36.6598 224.734 36.4878 224.885 36.2749C225.035 36.062 225.147 35.8244 225.223 35.5624C225.298 35.2921 225.335 35.0136 225.335 34.727C225.335 34.4404 225.298 34.166 225.223 33.9039C225.147 33.6418 225.035 33.4043 224.885 33.1914C224.734 32.9703 224.542 32.7983 224.308 32.6754C224.075 32.5526 223.803 32.4912 223.494 32.4912C223.186 32.4912 222.914 32.5526 222.681 32.6754C222.447 32.7983 222.255 32.9703 222.104 33.1914C221.954 33.4043 221.842 33.6418 221.766 33.9039C221.691 34.166 221.654 34.4404 221.654 34.727C221.654 35.0136 221.691 35.2921 221.766 35.5624C221.842 35.8244 221.954 36.062 222.104 36.2749C222.255 36.4878 222.447 36.6598 222.681 36.7908C222.923 36.9137 223.194 36.9751 223.494 36.9751ZM223.494 38.0807C222.476 38.0807 221.675 37.7736 221.09 37.1594C220.514 36.537 220.226 35.7262 220.226 34.727C220.226 33.736 220.514 32.9334 221.09 32.3192C221.675 31.6968 222.476 31.3855 223.494 31.3855C224.513 31.3855 225.31 31.6968 225.886 32.3192C226.471 32.9334 226.763 33.736 226.763 34.727C226.763 35.7262 226.471 36.537 225.886 37.1594C225.31 37.7736 224.513 38.0807 223.494 38.0807Z" fill="#02260B"/>
<path d="M227.95 37.9088V31.5575H229.29V32.786H229.315C229.356 32.614 229.436 32.4461 229.553 32.2823C229.669 32.1185 229.816 31.9711 229.991 31.8401C230.175 31.7009 230.371 31.5903 230.579 31.5084C230.788 31.4265 230.997 31.3855 231.206 31.3855C231.373 31.3855 231.523 31.3937 231.656 31.4101C231.698 31.4183 231.727 31.4224 231.744 31.4224V32.7737C231.711 32.7655 231.665 32.7573 231.606 32.7492C231.389 32.7246 231.231 32.7123 231.13 32.7123C230.621 32.7123 230.2 32.9048 229.866 33.2897C229.54 33.6746 229.377 34.207 229.377 34.8867V37.9088H227.95Z" fill="#02260B"/>
<path d="M232.39 37.9088V31.5575H233.817V37.9088H232.39ZM232.39 30.4642V29.1374H233.817V30.4642H232.39Z" fill="#02260B"/>
<path d="M239.367 35.7712V34.727C239.226 34.8171 239.059 34.8826 238.867 34.9236C238.683 34.9645 238.449 35.0014 238.165 35.0341C237.932 35.0587 237.748 35.0833 237.614 35.1078C237.255 35.1652 236.971 35.2716 236.763 35.4272C236.554 35.5828 236.45 35.8285 236.45 36.1643C236.45 36.3117 236.491 36.4387 236.575 36.5452C236.658 36.6516 236.767 36.7376 236.901 36.8031C237.034 36.8605 237.176 36.9055 237.326 36.9383C237.485 36.9628 237.631 36.9751 237.765 36.9751C237.932 36.9751 238.107 36.9546 238.291 36.9137C238.483 36.8646 238.658 36.7908 238.816 36.6926C238.983 36.5943 239.117 36.4714 239.217 36.324C239.317 36.1684 239.367 35.9841 239.367 35.7712ZM240.795 33.2283V36.496C240.795 36.668 240.82 36.7908 240.87 36.8646C240.92 36.9383 241.008 36.9751 241.133 36.9751C241.267 36.9751 241.384 36.9669 241.484 36.9506V37.921C241.367 37.962 241.217 37.9988 241.033 38.0316C240.849 38.0644 240.699 38.0807 240.582 38.0807C240.273 38.0807 240.023 38.0234 239.831 37.9088C239.647 37.7859 239.53 37.5853 239.48 37.3068C239.213 37.5607 238.875 37.7532 238.466 37.8842C238.057 38.0152 237.648 38.0807 237.239 38.0807C236.612 38.0807 236.087 37.921 235.661 37.6016C235.235 37.274 235.022 36.8154 235.022 36.2257C235.022 35.849 235.089 35.5378 235.222 35.2921C235.364 35.0382 235.552 34.8458 235.786 34.7147C236.02 34.5755 236.274 34.4731 236.55 34.4076C236.834 34.3421 237.155 34.2888 237.514 34.2479C237.656 34.2233 237.865 34.1947 238.14 34.1619C238.608 34.1046 238.942 34.0309 239.142 33.9408C239.351 33.8425 239.455 33.6459 239.455 33.3511C239.455 33.1791 239.413 33.0358 239.33 32.9211C239.255 32.8065 239.15 32.7205 239.017 32.6632C238.892 32.5976 238.75 32.5526 238.591 32.528C238.441 32.5035 238.282 32.4912 238.115 32.4912C237.698 32.4912 237.364 32.5772 237.113 32.7492C236.863 32.913 236.721 33.1627 236.688 33.4985H235.26C235.285 33.1054 235.381 32.7737 235.548 32.5035C235.715 32.225 235.936 32.0039 236.212 31.8401C236.487 31.6763 236.792 31.5616 237.126 31.4961C237.468 31.4224 237.827 31.3855 238.203 31.3855C238.528 31.3855 238.846 31.4224 239.155 31.4961C239.463 31.5616 239.739 31.6681 239.981 31.8155C240.232 31.9629 240.428 32.1554 240.57 32.3929C240.72 32.6304 240.795 32.9089 240.795 33.2283Z" fill="#02260B"/>
<path d="M242.369 37.9088V29.1374H243.796V37.9088H242.369Z" fill="#02260B"/>
<path d="M250.603 30.3905V36.6557H252.143C252.736 36.6557 253.228 36.5779 253.621 36.4223C254.013 36.2667 254.318 36.0497 254.535 35.7712C254.752 35.4846 254.902 35.157 254.986 34.7884C255.077 34.4199 255.123 33.9981 255.123 33.5231C255.123 33.0481 255.077 32.6263 254.986 32.2578C254.902 31.881 254.752 31.5534 254.535 31.275C254.318 30.9965 254.013 30.7795 253.621 30.6239C253.228 30.4683 252.736 30.3905 252.143 30.3905H250.603ZM249.037 37.9088V29.1374H252.744C253.412 29.1374 253.996 29.2521 254.497 29.4814C254.998 29.7025 255.411 30.0137 255.737 30.415C256.063 30.8082 256.3 31.2709 256.451 31.8032C256.609 32.3356 256.689 32.9089 256.689 33.5231C256.689 34.1373 256.609 34.7106 256.451 35.243C256.3 35.7753 256.063 36.2421 255.737 36.6434C255.411 37.0365 254.998 37.3478 254.497 37.5771C253.996 37.7982 253.412 37.9088 252.744 37.9088H249.037Z" fill="#02260B"/>
<path d="M263.56 31.5575V37.9088H262.157V37.0243H262.132C261.957 37.3355 261.698 37.5894 261.356 37.7859C261.013 37.9825 260.659 38.0807 260.291 38.0807C259.456 38.0807 258.843 37.876 258.45 37.4665C258.066 37.0488 257.874 36.4223 257.874 35.5869V31.5575H259.302V35.4518C259.302 35.9923 259.406 36.3814 259.615 36.6189C259.824 36.8564 260.133 36.9751 260.542 36.9751C261.101 36.9751 261.506 36.8195 261.756 36.5083C262.007 36.1971 262.132 35.7753 262.132 35.243V31.5575H263.56Z" fill="#02260B"/>
<path d="M265.065 37.9088V31.5575H266.405V32.786H266.43C266.472 32.614 266.551 32.4461 266.668 32.2823C266.785 32.1185 266.931 31.9711 267.106 31.8401C267.29 31.7009 267.486 31.5903 267.695 31.5084C267.903 31.4265 268.112 31.3855 268.321 31.3855C268.488 31.3855 268.638 31.3937 268.772 31.4101C268.813 31.4183 268.843 31.4224 268.859 31.4224V32.7737C268.826 32.7655 268.78 32.7573 268.722 32.7492C268.505 32.7246 268.346 32.7123 268.246 32.7123C267.737 32.7123 267.315 32.9048 266.981 33.2897C266.655 33.6746 266.493 34.207 266.493 34.8867V37.9088H265.065Z" fill="#02260B"/>
<path d="M273.462 35.7712V34.727C273.32 34.8171 273.153 34.8826 272.961 34.9236C272.778 34.9645 272.544 35.0014 272.26 35.0341C272.026 35.0587 271.843 35.0833 271.709 35.1078C271.35 35.1652 271.066 35.2716 270.858 35.4272C270.649 35.5828 270.544 35.8285 270.544 36.1643C270.544 36.3117 270.586 36.4387 270.67 36.5452C270.753 36.6516 270.862 36.7376 270.995 36.8031C271.129 36.8605 271.271 36.9055 271.421 36.9383C271.58 36.9628 271.726 36.9751 271.859 36.9751C272.026 36.9751 272.202 36.9546 272.385 36.9137C272.577 36.8646 272.753 36.7908 272.911 36.6926C273.078 36.5943 273.212 36.4714 273.312 36.324C273.412 36.1684 273.462 35.9841 273.462 35.7712ZM274.89 33.2283V36.496C274.89 36.668 274.915 36.7908 274.965 36.8646C275.015 36.9383 275.103 36.9751 275.228 36.9751C275.361 36.9751 275.478 36.9669 275.579 36.9506V37.921C275.462 37.962 275.311 37.9988 275.128 38.0316C274.944 38.0644 274.794 38.0807 274.677 38.0807C274.368 38.0807 274.118 38.0234 273.926 37.9088C273.742 37.7859 273.625 37.5853 273.575 37.3068C273.308 37.5607 272.97 37.7532 272.561 37.8842C272.152 38.0152 271.742 38.0807 271.333 38.0807C270.707 38.0807 270.181 37.921 269.755 37.6016C269.33 37.274 269.117 36.8154 269.117 36.2257C269.117 35.849 269.184 35.5378 269.317 35.2921C269.459 35.0382 269.647 34.8458 269.881 34.7147C270.115 34.5755 270.369 34.4731 270.645 34.4076C270.928 34.3421 271.25 34.2888 271.609 34.2479C271.751 34.2233 271.96 34.1947 272.235 34.1619C272.703 34.1046 273.036 34.0309 273.237 33.9408C273.445 33.8425 273.55 33.6459 273.55 33.3511C273.55 33.1791 273.508 33.0358 273.425 32.9211C273.349 32.8065 273.245 32.7205 273.112 32.6632C272.986 32.5976 272.844 32.5526 272.686 32.528C272.536 32.5035 272.377 32.4912 272.21 32.4912C271.793 32.4912 271.459 32.5772 271.208 32.7492C270.958 32.913 270.816 33.1627 270.782 33.4985H269.355C269.38 33.1054 269.476 32.7737 269.643 32.5035C269.81 32.225 270.031 32.0039 270.306 31.8401C270.582 31.6763 270.887 31.5616 271.221 31.4961C271.563 31.4224 271.922 31.3855 272.298 31.3855C272.623 31.3855 272.94 31.4224 273.249 31.4961C273.558 31.5616 273.834 31.6681 274.076 31.8155C274.326 31.9629 274.522 32.1554 274.664 32.3929C274.815 32.6304 274.89 32.9089 274.89 33.2283Z" fill="#02260B"/>
<path d="M281.447 34.7393C281.447 34.1169 281.289 33.5886 280.972 33.1546C280.654 32.7123 280.216 32.4912 279.657 32.4912C279.072 32.4912 278.621 32.6918 278.304 33.0931C277.995 33.4944 277.841 34.0432 277.841 34.7393C277.841 35.3945 278.004 35.9309 278.329 36.3486C278.655 36.7663 279.097 36.9751 279.657 36.9751C279.966 36.9751 280.237 36.9137 280.471 36.7908C280.704 36.668 280.892 36.5001 281.034 36.2872C281.176 36.0742 281.28 35.8367 281.347 35.5747C281.414 35.3044 281.447 35.0259 281.447 34.7393ZM276.463 37.9088V29.1374H277.891V32.3806H277.916C278.108 32.0776 278.384 31.836 278.743 31.6558C279.11 31.4756 279.477 31.3855 279.845 31.3855C280.821 31.3855 281.568 31.7049 282.086 32.3438C282.612 32.9744 282.875 33.7811 282.875 34.7639C282.875 35.1979 282.817 35.6156 282.7 36.0169C282.591 36.41 282.42 36.7622 282.186 37.0734C281.961 37.3846 281.669 37.6303 281.31 37.8105C280.951 37.9907 280.542 38.0807 280.082 38.0807C279.573 38.0807 279.118 38.0029 278.717 37.8473C278.325 37.6917 278.033 37.4215 277.841 37.0365H277.816V37.9088H276.463Z" fill="#02260B"/>
<path d="M284.119 37.9088V29.1374H285.546V37.9088H284.119Z" fill="#02260B"/>
<path d="M292.975 35.0955H288.216C288.216 35.6279 288.367 36.0742 288.667 36.4346C288.968 36.7949 289.398 36.9751 289.957 36.9751C290.758 36.9751 291.284 36.623 291.535 35.9186H292.887C292.737 36.5984 292.391 37.1307 291.848 37.5156C291.314 37.8924 290.683 38.0807 289.957 38.0807C288.964 38.0807 288.187 37.7736 287.628 37.1594C287.068 36.5452 286.789 35.7384 286.789 34.7393C286.789 34.2888 286.86 33.863 287.002 33.4617C287.152 33.0522 287.365 32.6918 287.64 32.3806C287.916 32.0694 288.246 31.8278 288.63 31.6558C289.022 31.4756 289.452 31.3855 289.919 31.3855C290.379 31.3855 290.796 31.4715 291.172 31.6435C291.556 31.8155 291.885 32.053 292.161 32.356C292.436 32.6591 292.645 33.0071 292.787 33.4002C292.929 33.7934 293 34.2029 293 34.6287C293 34.7843 292.992 34.9399 292.975 35.0955ZM288.216 34.1742H291.547C291.522 33.7074 291.36 33.3102 291.059 32.9826C290.767 32.655 290.387 32.4912 289.919 32.4912C289.435 32.4912 289.035 32.6509 288.717 32.9703C288.4 33.2897 288.233 33.691 288.216 34.1742Z" fill="#02260B"/>
</svg>
