<svg width="16" height="17" viewBox="0 0 16 17" fill="none" xmlns="http://www.w3.org/2000/svg">
<path d="M13.4734 5.71329L8.34002 8.68663C8.13335 8.80663 7.87335 8.80663 7.66002 8.68663L2.52669 5.71329C2.16002 5.49996 2.06669 4.99996 2.34669 4.68663C2.54002 4.46663 2.76002 4.28663 2.99335 4.15996L6.60669 2.15996C7.38002 1.72663 8.63335 1.72663 9.40669 2.15996L13.02 4.15996C13.2534 4.28663 13.4734 4.47329 13.6667 4.68663C13.9334 4.99996 13.84 5.49996 13.4734 5.71329Z" fill="#003E21"/>
<path d="M7.62003 9.92675V14.4734C7.62003 14.9801 7.10669 15.3134 6.65336 15.0934C5.28003 14.4201 2.96669 13.1601 2.96669 13.1601C2.15336 12.7001 1.48669 11.5401 1.48669 10.5867V7.14675C1.48669 6.62008 2.04003 6.28675 2.49336 6.54675L7.28669 9.32675C7.48669 9.45342 7.62003 9.68008 7.62003 9.92675Z" fill="white"/>
<path d="M8.38 9.92675V14.4734C8.38 14.9801 8.89334 15.3134 9.34667 15.0934C10.72 14.4201 13.0333 13.1601 13.0333 13.1601C13.8467 12.7001 14.5133 11.5401 14.5133 10.5867V7.14675C14.5133 6.62008 13.96 6.28675 13.5067 6.54675L8.71334 9.32675C8.51334 9.45342 8.38 9.68008 8.38 9.92675Z" fill="white"/>
</svg>
