<svg width="213" height="35" viewBox="0 0 213 35" fill="none" xmlns="http://www.w3.org/2000/svg">
<path d="M17.371 0C26.0437 0 33.2507 6.4374 34.5374 14.8204C32.2899 14.4472 30.0103 14.5245 27.8263 15.0165C27.0979 9.85559 22.6865 5.8748 17.3676 5.8748C12.0488 5.8748 8.00437 9.5317 7.01689 14.3788C4.95853 13.6066 2.75672 13.2245 0.513757 13.2738C2.39753 5.65962 9.23984 0 17.371 0Z" fill="#60C6EE"/>
<path d="M34.742 17.5067C34.742 19.0455 34.5429 20.5371 34.1715 21.9593C30.6175 21.0852 26.801 22.1297 24.1799 24.7712C21.6334 27.3365 20.5703 31.0327 21.3242 34.5551C20.2545 34.8072 19.148 34.9574 18.0126 35C18.7254 31.9023 18.592 28.7251 17.689 25.7754C18.4474 24.1279 19.4794 22.6329 20.7682 21.334C24.4157 17.658 29.7034 16.0767 34.7353 17.1066C34.7386 17.24 34.7397 17.3722 34.7397 17.5056L34.742 17.5067Z" fill="#96C01F"/>
<path d="M0 17.5067C0 16.8298 0.040033 16.1619 0.114539 15.504C4.46145 15.2843 8.66603 16.906 11.763 20.0272C15.6518 23.9464 17.1553 29.606 15.7663 34.9372C14.125 34.7848 12.5481 34.4027 11.0691 33.8199C12.0688 30.1551 11.0569 26.1889 8.35244 23.4645C6.20734 21.3026 3.23378 20.1875 0.233526 20.3702C0.081178 19.4377 0 18.4818 0 17.5067Z" fill="#3FAA39"/>
<path d="M13.3154 18.4627C12.051 17.1884 10.6232 16.1327 9.08527 15.3135C9.66908 11.2341 13.1597 8.08822 17.3676 8.08822C21.5756 8.08822 25.253 11.4033 25.6912 15.6419C23.2903 16.5115 21.0674 17.9035 19.2158 19.7706C18.2139 20.7792 17.3476 21.8921 16.6226 23.0924C15.7886 21.4068 14.681 19.8412 13.3143 18.4627H13.3154Z" fill="#FFCF08"/>
<path d="M0.74061 22.5645C2.99024 22.5298 5.18983 23.4062 6.80005 25.0301C8.85174 27.0978 9.67464 30.0688 9.04412 32.8673C5.09086 30.6819 2.06837 26.9902 0.74061 22.5645Z" fill="#96C01F"/>
<path d="M23.4382 33.9107C22.9122 31.1739 23.7596 28.3261 25.7334 26.3357C27.7662 24.2871 30.7086 23.451 33.4743 24.0685C31.6494 28.6007 27.9942 32.1937 23.4382 33.9107Z" fill="#3FAA39"/>
<path d="M51.9332 23.5396C47.523 23.5396 44.1942 20.0823 44.1942 15.814C44.1942 11.5244 47.3534 8.0458 51.9332 8.0458C54.3504 8.0458 56.0254 8.79274 57.3612 10.3933L55.2621 12.2287C54.3716 11.2897 53.269 10.8202 51.9332 10.8202C49.0709 10.8202 47.2686 13.0823 47.2686 15.814C47.2686 18.5457 49.0709 20.7652 51.9968 20.7652C53.4386 20.7652 54.52 20.2744 55.3893 19.314L57.552 21.1707C56.4282 22.5366 54.52 23.5396 51.9332 23.5396Z" fill="#02260B"/>
<path d="M63.3788 23.5396C59.9651 23.5396 57.5056 20.936 57.5056 17.7348C57.5056 14.5336 59.9651 11.9086 63.3788 11.9086C66.7924 11.9086 69.252 14.5336 69.252 17.7348C69.252 20.936 66.7924 23.5396 63.3788 23.5396ZM60.368 17.7348C60.368 19.4634 61.5553 20.9146 63.3788 20.9146C65.2022 20.9146 66.3896 19.4634 66.3896 17.7348C66.3896 16.0061 65.2022 14.5336 63.3788 14.5336C61.5553 14.5336 60.368 16.0061 60.368 17.7348Z" fill="#02260B"/>
<path d="M75.8644 23.5396C72.4508 23.5396 69.9912 20.936 69.9912 17.7348C69.9912 14.5336 72.4508 11.9086 75.8644 11.9086C79.2781 11.9086 81.7376 14.5336 81.7376 17.7348C81.7376 20.936 79.2781 23.5396 75.8644 23.5396ZM72.8536 17.7348C72.8536 19.4634 74.041 20.9146 75.8644 20.9146C77.6879 20.9146 78.8752 19.4634 78.8752 17.7348C78.8752 16.0061 77.6879 14.5336 75.8644 14.5336C74.041 14.5336 72.8536 16.0061 72.8536 17.7348Z" fill="#02260B"/>
<path d="M83.0045 27.5304V12.1647H85.8245V13.9573C86.4181 12.7409 87.4147 11.9299 89.3441 11.9299C92.3761 11.9299 94.7933 14.5549 94.7933 17.7561C94.7933 20.9573 92.3761 23.5396 89.3441 23.5396C87.4571 23.5396 86.4605 22.7713 85.8669 21.6189V27.5304H83.0045ZM85.782 17.7561C85.782 19.4847 86.9906 20.936 88.8777 20.936C90.7011 20.936 91.9309 19.4207 91.9309 17.7348C91.9309 16.0061 90.7011 14.5336 88.8777 14.5336C86.9906 14.5336 85.782 16.0274 85.782 17.7561Z" fill="#02260B"/>
<path d="M101.246 23.5396C97.8322 23.5396 95.5423 20.936 95.5423 17.7348C95.5423 14.5336 97.9382 11.8872 101.246 11.8872C104.554 11.8872 106.843 14.5336 106.843 17.7348C106.843 18.0549 106.822 18.3963 106.759 18.7591H98.5107C98.8287 20.061 99.8041 20.9786 101.246 20.9786C102.476 20.9786 103.43 20.3384 103.939 19.4847L106.165 21.1707C105.274 22.5579 103.43 23.5396 101.246 23.5396ZM98.5107 16.6037H103.96C103.642 15.3659 102.603 14.3628 101.203 14.3628C99.8465 14.3628 98.8287 15.2805 98.5107 16.6037ZM100.143 11.183L101.076 7.46958H104.002L102.136 11.183H100.143Z" fill="#02260B"/>
<path d="M108.1 23.2622V12.1647H110.878V14.2775C111.259 12.6769 112.383 11.8019 114.291 11.9086V14.6189H113.888C112.235 14.6189 110.962 15.7287 110.962 17.5854V23.2622H108.1Z" fill="#02260B"/>
<path d="M119.73 23.5396C116.698 23.5396 114.281 20.9573 114.281 17.7561C114.281 14.5549 116.698 11.9299 119.73 11.9299C121.639 11.9299 122.635 12.7195 123.229 13.9147V12.1647H126.07V23.2622H123.292V21.4481C122.699 22.7073 121.702 23.5396 119.73 23.5396ZM117.144 17.7348C117.144 19.4207 118.373 20.936 120.197 20.936C122.084 20.936 123.292 19.4847 123.292 17.7561C123.292 16.0274 122.084 14.5336 120.197 14.5336C118.373 14.5336 117.144 16.0061 117.144 17.7348Z" fill="#02260B"/>
<path d="M131.948 23.2622C129.764 23.2622 128.576 22.2378 128.576 19.8262V14.6189H127.028V12.1647H128.576V9.92383L131.439 9.62505V12.1647H133.771V14.6189H131.439V19.6768C131.439 20.3811 131.778 20.7012 132.329 20.7012H133.517V23.2622H131.948Z" fill="#02260B"/>
<path d="M134.728 23.2622V12.1647H137.59V23.2622H134.728ZM134.431 9.53969C134.431 8.62201 135.173 7.85372 136.148 7.85372C137.145 7.85372 137.866 8.62201 137.866 9.53969C137.866 10.5 137.145 11.247 136.148 11.247C135.173 11.247 134.431 10.4787 134.431 9.53969Z" fill="#02260B"/>
<path d="M142.718 23.2622L138.117 12.1647H141.509L143.714 18.503C143.905 19.0366 144.075 19.6982 144.181 20.2744C144.287 19.6982 144.457 19.0366 144.647 18.503L146.852 12.1647H150.181L145.602 23.2622H142.718Z" fill="#02260B"/>
<path d="M155.288 23.5396C151.875 23.5396 149.585 20.936 149.585 17.7348C149.585 14.5336 151.981 11.8872 155.288 11.8872C158.596 11.8872 160.886 14.5336 160.886 17.7348C160.886 18.0549 160.865 18.3963 160.801 18.7591H152.553C152.871 20.061 153.846 20.9786 155.288 20.9786C156.518 20.9786 157.472 20.3384 157.981 19.4847L160.207 21.1707C159.317 22.5579 157.472 23.5396 155.288 23.5396ZM152.553 16.6037H158.002C157.684 15.3659 156.645 14.3628 155.246 14.3628C153.889 14.3628 152.871 15.2805 152.553 16.6037Z" fill="#02260B"/>
<path d="M164.184 23.2622L170.248 8.32323H172.813L178.856 23.2622H175.633L174.615 20.4238H168.424L167.406 23.2622H164.184ZM169.4 17.8415H173.64L172.05 13.7653C171.838 13.2104 171.647 12.6342 171.52 12.058C171.371 12.6342 171.202 13.2317 170.99 13.7653L169.4 17.8415Z" fill="#02260B"/>
<path d="M179.52 23.2622V8.32323H182.488V23.2622H179.52Z" fill="#02260B"/>
<path d="M184.613 23.2622V8.32323H186.861L194.091 16.9665C194.43 17.3506 194.769 17.7561 195.066 18.2043C194.981 17.564 194.96 16.6463 194.96 15.7714V8.32323H197.674V23.2622H195.745L188.239 14.2775C187.9 13.8933 187.56 13.4878 187.264 13.0397C187.348 13.6799 187.37 14.5976 187.37 15.4726V23.2622H184.613Z" fill="#02260B"/>
<path d="M198.328 23.2622L204.392 8.32323H206.957L213 23.2622H209.777L208.759 20.4238H202.568L201.55 23.2622H198.328ZM203.544 17.8415H207.784L206.194 13.7653C205.982 13.2104 205.791 12.6342 205.664 12.058C205.515 12.6342 205.346 13.2317 205.134 13.7653L203.544 17.8415Z" fill="#02260B"/>
</svg>
