<svg width="16" height="17" viewBox="0 0 16 17" fill="none" xmlns="http://www.w3.org/2000/svg">
<path d="M12.4467 1.8335H11.18C9.72669 1.8335 8.96002 2.60016 8.96002 4.0535V5.32016C8.96002 6.7735 9.72669 7.54016 11.18 7.54016H12.4467C13.9 7.54016 14.6667 6.7735 14.6667 5.32016V4.0535C14.6667 2.60016 13.9 1.8335 12.4467 1.8335Z" fill="white"/>
<path d="M4.82665 9.45312H3.55998C2.09998 9.45312 1.33331 10.2198 1.33331 11.6731V12.9398C1.33331 14.3998 2.09998 15.1665 3.55331 15.1665H4.81998C6.27331 15.1665 7.03998 14.3998 7.03998 12.9465V11.6798C7.04665 10.2198 6.27998 9.45312 4.82665 9.45312Z" fill="#003E21"/>
<path d="M4.19331 7.5535C5.77285 7.5535 7.05331 6.27303 7.05331 4.6935C7.05331 3.11396 5.77285 1.8335 4.19331 1.8335C2.61378 1.8335 1.33331 3.11396 1.33331 4.6935C1.33331 6.27303 2.61378 7.5535 4.19331 7.5535Z" fill="#003E21"/>
<path d="M11.8067 15.1668C13.3862 15.1668 14.6667 13.8863 14.6667 12.3068C14.6667 10.7272 13.3862 9.44678 11.8067 9.44678C10.2271 9.44678 8.94666 10.7272 8.94666 12.3068C8.94666 13.8863 10.2271 15.1668 11.8067 15.1668Z" fill="#003E21"/>
</svg>
