<svg width="25" height="26" viewBox="0 0 25 26" fill="none" xmlns="http://www.w3.org/2000/svg">
<path d="M22.7141 10.9287H21.875V10.8855H12.5V15.0521H18.387C17.5282 17.4777 15.2204 19.2188 12.5 19.2188C9.04848 19.2188 6.25004 16.4204 6.25004 12.9688C6.25004 9.51724 9.04848 6.71881 12.5 6.71881C14.0933 6.71881 15.5427 7.31985 16.6464 8.30162L19.5927 5.35526C17.7323 3.62141 15.2438 2.55214 12.5 2.55214C6.74744 2.55214 2.08337 7.2162 2.08337 12.9688C2.08337 18.7214 6.74744 23.3855 12.5 23.3855C18.2526 23.3855 22.9167 18.7214 22.9167 12.9688C22.9167 12.2704 22.8448 11.5886 22.7141 10.9287Z" fill="#FFC107"/>
<path d="M3.28442 8.12037L6.70682 10.6303C7.63286 8.33756 9.87557 6.71881 12.5 6.71881C14.0933 6.71881 15.5428 7.31985 16.6464 8.30162L19.5928 5.35526C17.7323 3.62141 15.2438 2.55214 12.5 2.55214C8.49901 2.55214 5.02922 4.81099 3.28442 8.12037Z" fill="#FF3D00"/>
<path d="M12.5 23.3855C15.1906 23.3855 17.6354 22.3558 19.4839 20.6813L16.2599 17.9532C15.1789 18.7753 13.8581 19.2199 12.5 19.2188C9.79062 19.2188 7.4901 17.4912 6.62344 15.0803L3.22656 17.6975C4.95052 21.0709 8.45156 23.3855 12.5 23.3855Z" fill="#4CAF50"/>
<path d="M22.7141 10.9287H21.875V10.8855H12.5V15.0521H18.387C17.9761 16.2065 17.2361 17.2153 16.2583 17.9537L16.2599 17.9527L19.4839 20.6808C19.2557 20.8881 22.9167 18.1771 22.9167 12.9688C22.9167 12.2704 22.8448 11.5886 22.7141 10.9287Z" fill="#1976D2"/>
</svg>
