<svg width="126" height="36" viewBox="0 0 126 36" fill="none" xmlns="http://www.w3.org/2000/svg">
<g clip-path="url(#clip0_16_124)">
<path fill-rule="evenodd" clip-rule="evenodd" d="M33.6464 0.5H0V33.8882H33.6464V0.5ZM6.82915 27.0111C5.08885 3.40912 26.6688 7.43873 26.6688 7.43873C27.365 14.9223 25.2998 28.3006 6.82915 27.0111Z" fill="#A1D83B"/>
<path d="M49.8113 5.5658C50.5555 5.5658 51.2254 5.65035 51.8208 5.81948C52.4374 5.96744 52.8945 6.15771 53.1922 6.39025L52.5863 9.27587C52.3524 9.12788 52.0865 9.01162 51.7888 8.92706C51.4911 8.84249 51.1402 8.80021 50.7362 8.80021C49.9069 8.80021 49.2479 8.99048 48.7588 9.37099C48.2696 9.73038 48.025 10.354 48.025 11.2419V13.4299L48.2165 14.286V28.6824H43.8469V10.9248C43.8469 10.0369 43.9956 9.25473 44.2933 8.57824C44.591 7.90177 45.0057 7.34156 45.5373 6.89761C46.0689 6.45367 46.6961 6.126 47.4192 5.9146C48.1633 5.68206 48.9609 5.5658 49.8113 5.5658ZM53.0648 12.8274V16.0618H41.0718V12.8274H53.0648ZM59.3082 12.8274V28.6824H54.9383V12.8274H59.3082Z" fill="#003E21"/>
<path d="M61.7203 28.6824V5.88287H66.0901V15.5227C66.6004 14.508 67.3021 13.7575 68.1952 13.2713C69.0884 12.7639 70.0985 12.5103 71.2253 12.5103C72.331 12.5103 73.3093 12.7217 74.1597 13.1445C75.0315 13.5673 75.7121 14.212 76.2012 15.0788C76.7115 15.9244 76.9665 16.9919 76.9665 18.2815V28.6824H72.5969V19.5499C72.5969 18.1758 72.331 17.2351 71.7996 16.7277C71.268 16.1992 70.5874 15.9349 69.7581 15.9349C69.1415 15.9349 68.5461 16.0829 67.972 16.3789C67.4191 16.6537 66.9619 17.1188 66.6004 17.7741C66.2602 18.4083 66.0901 19.2539 66.0901 20.3109V28.6824H61.7203Z" fill="#003E21"/>
<path d="M89.4442 18.5669C89.4442 17.6579 89.1786 16.9497 88.6469 16.4423C88.1364 15.935 87.4561 15.6813 86.6057 15.6813C85.8188 15.6813 85.1278 15.8821 84.5323 16.2838C83.9369 16.6854 83.5009 17.3513 83.2245 18.2815L79.4928 17.1399C79.8543 15.7447 80.641 14.6243 81.8532 13.7787C83.0865 12.9331 84.7342 12.5103 86.7969 12.5103C88.2003 12.5103 89.4231 12.7323 90.465 13.1762C91.5069 13.599 92.3149 14.2438 92.8889 15.1105C93.4844 15.9772 93.7821 17.0659 93.7821 18.3766V24.8137C93.7821 25.6171 94.165 26.0187 94.9305 26.0187C95.292 26.0187 95.6322 25.966 95.951 25.8603L95.696 28.5555C95.143 28.8304 94.452 28.9677 93.6227 28.9677C92.8785 28.9677 92.2086 28.841 91.6132 28.5873C91.0177 28.3335 90.5499 27.9531 90.2098 27.4456C89.8696 26.9172 89.6995 26.2619 89.6995 25.4796V25.3528L90.465 25.2259C90.3374 26.0293 89.9865 26.7164 89.4125 27.2872C88.8384 27.8369 88.1364 28.2596 87.3074 28.5555C86.4991 28.8514 85.6594 28.9994 84.7876 28.9994C83.703 28.9994 82.7674 28.841 81.9805 28.5237C81.1939 28.1855 80.5878 27.6994 80.1625 27.0652C79.7374 26.4309 79.5246 25.6489 79.5246 24.7186C79.5246 23.5348 79.9075 22.5729 80.673 21.833C81.4385 21.072 82.5335 20.554 83.9583 20.2792L89.9545 19.0743L89.9227 21.7696L86.0952 22.5306C85.3723 22.6786 84.8194 22.8794 84.4367 23.1331C84.0752 23.3657 83.8944 23.7568 83.8944 24.3065C83.8944 24.8349 84.0859 25.2365 84.4685 25.5114C84.8725 25.7861 85.351 25.9236 85.9039 25.9236C86.3504 25.9236 86.7862 25.8706 87.2115 25.7649C87.6369 25.6593 88.0195 25.4902 88.3599 25.2577C88.7001 25.0251 88.9658 24.708 89.1572 24.3065C89.3486 23.9046 89.4442 23.4185 89.4442 22.8477V18.5669Z" fill="#003E21"/>
<path d="M98.1111 28.6824V12.8274H101.907L102.194 15.935C102.619 14.8357 103.236 13.9901 104.044 13.3982C104.873 12.8062 105.904 12.5103 107.138 12.5103C107.499 12.5103 107.829 12.542 108.126 12.6054C108.424 12.6688 108.669 12.7534 108.86 12.8591L108.35 16.5057C108.137 16.4212 107.871 16.3578 107.552 16.3155C107.255 16.2732 106.861 16.2521 106.372 16.2521C105.734 16.2521 105.117 16.4106 104.522 16.7277C103.927 17.0237 103.438 17.4888 103.055 18.1229C102.672 18.736 102.481 19.5182 102.481 20.4695V28.6824H98.1111Z" fill="#003E21"/>
<path d="M126 12.8274L119.557 29.6654C119.047 31.1029 118.472 32.2445 117.835 33.0901C117.218 33.9356 116.495 34.5488 115.666 34.9292C114.858 35.3098 113.89 35.5 112.763 35.5C111.934 35.5 111.168 35.3943 110.467 35.1829C109.786 34.9927 109.191 34.739 108.68 34.4219L109.605 31.2825C110.01 31.5996 110.435 31.8215 110.881 31.9484C111.328 32.0965 111.838 32.1704 112.412 32.1704C113.008 32.1704 113.518 32.0435 113.943 31.79C114.39 31.5362 114.762 31.029 115.06 30.268L115.602 28.9043L113.848 24.7819L108.967 12.8274H113.816L116.846 22.3404L117.675 25.5114L118.664 22.1501L121.567 12.8274H126Z" fill="#003E21"/>
<path d="M55.2497 11.072C54.8469 5.61563 59.8414 6.54721 59.8414 6.54721C60.0025 8.27729 59.5245 11.3701 55.2497 11.072Z" fill="#003E21" stroke="#003E21"/>
</g>
<defs>
<clipPath id="clip0_16_124">
<rect width="126" height="35" fill="white" transform="translate(0 0.5)"/>
</clipPath>
</defs>
</svg>
