<svg width="543" height="152" viewBox="0 0 543 152" fill="none" xmlns="http://www.w3.org/2000/svg">
<path fill-rule="evenodd" clip-rule="evenodd" d="M145 0H0V145H145V0ZM29.4304 115.134C21.9305 12.6339 114.93 30.1339 114.93 30.1339C117.93 62.6339 109.03 120.734 29.4304 115.134Z" fill="#CBF48F"/>
<path d="M214.663 22C217.87 22 220.757 22.3672 223.323 23.1017C225.98 23.7443 227.95 24.5706 229.233 25.5805L226.622 38.1123C225.614 37.4696 224.468 36.9647 223.185 36.5975C221.902 36.2302 220.39 36.0466 218.649 36.0466C215.075 36.0466 212.235 36.8729 210.127 38.5254C208.019 40.0862 206.965 42.7945 206.965 46.6504V56.1525L207.79 59.8708V122.392H188.959V45.2733C188.959 41.4174 189.6 38.0205 190.883 35.0826C192.166 32.1448 193.953 29.7119 196.244 27.7839C198.535 25.8559 201.238 24.4329 204.354 23.5148C207.561 22.5049 210.998 22 214.663 22ZM228.684 53.536V67.5826H177V53.536H228.684ZM255.59 53.536V122.392H236.758V53.536H255.59Z" fill="#F6F6F6"/>
<path d="M265.985 122.392V23.3771H284.817V65.2415C287.016 60.8347 290.04 57.5756 293.889 55.464C297.738 53.2606 302.091 52.1589 306.947 52.1589C311.712 52.1589 315.928 53.077 319.593 54.9131C323.35 56.7493 326.283 59.5494 328.391 63.3136C330.59 66.9859 331.689 71.6222 331.689 77.2225V122.392H312.858V82.7309C312.858 76.7634 311.712 72.678 309.422 70.4746C307.131 68.1794 304.198 67.0318 300.624 67.0318C297.967 67.0318 295.401 67.6744 292.927 68.9597C290.544 70.1532 288.574 72.173 287.016 75.0191C285.55 77.7733 284.817 81.4456 284.817 86.036V122.392H265.985Z" fill="#F6F6F6"/>
<path d="M385.462 78.4619C385.462 74.5141 384.317 71.4386 382.026 69.2352C379.826 67.0318 376.894 65.9301 373.229 65.9301C369.838 65.9301 366.86 66.8023 364.294 68.5466C361.728 70.291 359.849 73.1829 358.658 77.2225L342.576 72.2648C344.134 66.2055 347.524 61.3397 352.748 57.6674C358.063 53.9951 365.164 52.1589 374.053 52.1589C380.101 52.1589 385.371 53.1229 389.861 55.0508C394.351 56.887 397.833 59.6871 400.307 63.4513C402.873 67.2154 404.156 71.9435 404.156 77.6356V105.591C404.156 109.08 405.806 110.824 409.105 110.824C410.663 110.824 412.129 110.595 413.503 110.136L412.404 121.841C410.021 123.035 407.043 123.631 403.469 123.631C400.262 123.631 397.375 123.081 394.809 121.979C392.243 120.877 390.227 119.225 388.761 117.021C387.295 114.726 386.562 111.88 386.562 108.483V107.932L389.861 107.381C389.311 110.87 387.799 113.854 385.325 116.333C382.851 118.72 379.826 120.556 376.253 121.841C372.77 123.126 369.151 123.769 365.394 123.769C360.72 123.769 356.688 123.081 353.297 121.703C349.907 120.234 347.295 118.123 345.462 115.369C343.63 112.614 342.713 109.218 342.713 105.178C342.713 100.037 344.363 95.8595 347.662 92.6462C350.961 89.3411 355.68 87.0918 361.82 85.8983L387.661 80.6653L387.524 92.3708L371.029 95.6758C367.914 96.3185 365.531 97.1907 363.882 98.2924C362.324 99.3023 361.545 101.001 361.545 103.388C361.545 105.683 362.37 107.427 364.019 108.621C365.76 109.814 367.822 110.411 370.205 110.411C372.129 110.411 374.007 110.181 375.84 109.722C377.673 109.263 379.322 108.529 380.789 107.519C382.255 106.509 383.4 105.132 384.225 103.388C385.05 101.643 385.462 99.5318 385.462 97.053V78.4619Z" fill="#F6F6F6"/>
<path d="M422.812 122.392V53.536H439.169L440.406 67.0318C442.239 62.2578 444.896 58.5854 448.379 56.0148C451.952 53.4442 456.397 52.1589 461.712 52.1589C463.27 52.1589 464.69 52.2966 465.973 52.572C467.256 52.8475 468.31 53.2147 469.134 53.6737L466.935 69.5106C466.019 69.1434 464.873 68.8679 463.499 68.6843C462.216 68.5007 460.521 68.4089 458.413 68.4089C455.664 68.4089 453.006 69.0975 450.44 70.4746C447.875 71.7599 445.767 73.7797 444.117 76.5339C442.468 79.1963 441.643 82.5932 441.643 86.7246V122.392H422.812Z" fill="#F6F6F6"/>
<path d="M543 53.536L515.234 126.661C513.035 132.904 510.56 137.862 507.811 141.534C505.154 145.206 502.038 147.869 498.464 149.521C494.982 151.174 490.812 152 485.956 152C482.382 152 479.083 151.541 476.059 150.623C473.126 149.797 470.561 148.695 468.361 147.318L472.347 133.684C474.089 135.061 475.921 136.025 477.846 136.576C479.77 137.219 481.969 137.54 484.444 137.54C487.009 137.54 489.209 136.989 491.042 135.888C492.966 134.786 494.57 132.583 495.852 129.278L498.189 123.356L490.629 105.453L469.598 53.536H490.492L503.55 94.8496L507.124 108.621L511.385 94.0233L523.894 53.536H543Z" fill="#F6F6F6"/>
<path d="M238.1 45.9128C236.364 22.2164 257.888 26.2621 257.888 26.2621C258.582 33.7756 256.522 47.2074 238.1 45.9128Z" fill="#F6F6F6" stroke="#F6F6F6"/>
</svg>
