<svg width="112" height="31" viewBox="0 0 112 31" fill="none" xmlns="http://www.w3.org/2000/svg">
<g clip-path="url(#clip0_11_844)">
<path fill-rule="evenodd" clip-rule="evenodd" d="M29.9079 0H0V29.5724H29.9079V0ZM6.07036 23.4813C4.52342 2.57665 23.7056 6.14573 23.7056 6.14573C24.3244 12.774 22.4887 24.6234 6.07036 23.4813Z" fill="#A1D83B"/>
<path d="M44.2767 4.48685C44.9382 4.48685 45.5337 4.56174 46.063 4.71154C46.611 4.84259 47.0173 5.01111 47.282 5.21708L46.7434 7.77291C46.5355 7.64183 46.2991 7.53886 46.0345 7.46397C45.7699 7.38906 45.458 7.35161 45.0989 7.35161C44.3617 7.35161 43.7759 7.52014 43.3411 7.85716C42.9063 8.17548 42.6889 8.72783 42.6889 9.51423V11.4522L42.8591 12.2105V24.9615H38.975V9.23338C38.975 8.44697 39.1072 7.75419 39.3718 7.15501C39.6365 6.55585 40.0051 6.05967 40.4776 5.66646C40.9501 5.27325 41.5077 4.98303 42.1504 4.79579C42.8119 4.58982 43.5208 4.48685 44.2767 4.48685ZM47.1687 10.9185V13.7833H36.5083V10.9185H47.1687ZM52.7184 10.9185V24.9615H48.8341V10.9185H52.7184Z" fill="#003E21"/>
<path d="M54.8623 24.9615V4.7677H58.7466V13.3058C59.2002 12.4071 59.8239 11.7424 60.6178 11.3117C61.4117 10.8624 62.3096 10.6377 63.3112 10.6377C64.294 10.6377 65.1636 10.8249 65.9196 11.1994C66.6945 11.5739 67.2995 12.1449 67.7343 12.9126C68.1878 13.6616 68.4145 14.6072 68.4145 15.7493V24.9615H64.5304V16.8728C64.5304 15.6557 64.294 14.8225 63.8217 14.3731C63.3491 13.905 62.7442 13.671 62.007 13.671C61.459 13.671 60.9297 13.802 60.4194 14.0642C59.9279 14.3076 59.5215 14.7195 59.2002 15.2999C58.8978 15.8617 58.7466 16.6106 58.7466 17.5468V24.9615H54.8623Z" fill="#003E21"/>
<path d="M79.5059 16.0021C79.5059 15.1969 79.2697 14.5697 78.7972 14.1203C78.3434 13.671 77.7386 13.4463 76.9827 13.4463C76.2833 13.4463 75.669 13.6241 75.1397 13.9799C74.6105 14.3357 74.2229 14.9255 73.9773 15.7493L70.6602 14.7382C70.9815 13.5024 71.6807 12.5101 72.7582 11.7611C73.8545 11.0122 75.3192 10.6377 77.1527 10.6377C78.4001 10.6377 79.4871 10.8343 80.4132 11.2275C81.3393 11.6019 82.0576 12.173 82.5678 12.9407C83.0971 13.7084 83.3617 14.6727 83.3617 15.8336V21.535C83.3617 22.2466 83.7021 22.6023 84.3825 22.6023C84.7039 22.6023 85.0063 22.5556 85.2897 22.4619L85.063 24.8491C84.5715 25.0927 83.9572 25.2142 83.22 25.2142C82.5586 25.2142 81.9631 25.102 81.4338 24.8773C80.9045 24.6525 80.4887 24.3156 80.1863 23.8661C79.884 23.3981 79.7328 22.8176 79.7328 22.1248V22.0124L80.4132 21.9001C80.2998 22.6116 79.9879 23.2202 79.4776 23.7258C78.9673 24.2126 78.3434 24.5871 77.6064 24.8491C76.888 25.1112 76.1416 25.2424 75.3666 25.2424C74.4026 25.2424 73.5709 25.102 72.8715 24.821C72.1723 24.5214 71.6335 24.0909 71.2554 23.5292C70.8776 22.9673 70.6884 22.2747 70.6884 21.4508C70.6884 20.4023 71.0287 19.5503 71.7092 18.8949C72.3897 18.2209 73.363 17.7621 74.6295 17.5187L79.9595 16.4515L79.9312 18.8388L76.5289 19.5128C75.8864 19.6439 75.3949 19.8218 75.0548 20.0465C74.7334 20.2524 74.5727 20.5989 74.5727 21.0857C74.5727 21.5538 74.7429 21.9094 75.083 22.153C75.4421 22.3963 75.8674 22.518 76.359 22.518C76.7558 22.518 77.1432 22.4711 77.5212 22.3775C77.8993 22.2839 78.2394 22.1342 78.542 21.9282C78.8444 21.7222 79.0806 21.4414 79.2507 21.0857C79.4209 20.7298 79.5059 20.2992 79.5059 19.7937V16.0021Z" fill="#003E21"/>
<path d="M87.21 24.9615V10.9185H90.5838L90.8389 13.671C91.217 12.6973 91.765 11.9483 92.4834 11.4241C93.2204 10.8998 94.1373 10.6377 95.2335 10.6377C95.5549 10.6377 95.8478 10.6657 96.1124 10.7219C96.377 10.7781 96.5944 10.853 96.7644 10.9466L96.3108 14.1765C96.1219 14.1016 95.8855 14.0454 95.6021 14.008C95.3375 13.9705 94.9879 13.9518 94.5531 13.9518C93.9861 13.9518 93.4378 14.0922 92.9086 14.3731C92.3795 14.6352 91.9447 15.0472 91.6044 15.6089C91.2642 16.1519 91.0941 16.8447 91.0941 17.6872V24.9615H87.21Z" fill="#003E21"/>
<path d="M112 10.9185L106.273 25.8322C105.82 27.1054 105.309 28.1166 104.742 28.8655C104.194 29.6144 103.551 30.1575 102.814 30.4944C102.096 30.8315 101.236 31 100.234 31C99.497 31 98.8165 30.9064 98.1928 30.7192C97.5878 30.5507 97.0588 30.3259 96.605 30.0451L97.4271 27.2645C97.7864 27.5453 98.1643 27.7419 98.5614 27.8543C98.9582 27.9854 99.4118 28.0509 99.9223 28.0509C100.451 28.0509 100.905 27.9385 101.283 27.714C101.68 27.4892 102.011 27.0399 102.275 26.3659L102.757 25.1581L101.198 21.5069L96.8601 10.9185H101.17L103.863 19.3443L104.6 22.153L105.479 19.1758L108.059 10.9185H112Z" fill="#003E21"/>
<path d="M49.1109 9.36378C48.7528 4.53096 53.1924 5.35607 53.1924 5.35607C53.3355 6.88843 52.9106 9.62781 49.1109 9.36378Z" fill="#003E21" stroke="#003E21"/>
</g>
<defs>
<clipPath id="clip0_11_844">
<rect width="112" height="31" fill="white"/>
</clipPath>
</defs>
</svg>
