<svg width="112" height="32" viewBox="0 0 112 32" fill="none" xmlns="http://www.w3.org/2000/svg">
<g clip-path="url(#clip0_2_311)">
<path fill-rule="evenodd" clip-rule="evenodd" d="M29.9079 0.5H0V30.0724H29.9079V0.5ZM6.07036 23.9813C4.52342 3.07665 23.7056 6.64573 23.7056 6.64573C24.3244 13.274 22.4887 25.1234 6.07036 23.9813Z" fill="#003E21"/>
<path d="M44.2767 4.98685C44.9382 4.98685 45.5337 5.06174 46.063 5.21154C46.611 5.34259 47.0173 5.51111 47.282 5.71708L46.7434 8.27291C46.5355 8.14183 46.2991 8.03886 46.0345 7.96397C45.7699 7.88906 45.458 7.85161 45.0989 7.85161C44.3617 7.85161 43.7759 8.02014 43.3411 8.35716C42.9063 8.67548 42.6889 9.22783 42.6889 10.0142V11.9522L42.8591 12.7105V25.4615H38.975V9.73338C38.975 8.94697 39.1072 8.25419 39.3718 7.65501C39.6365 7.05585 40.0051 6.55967 40.4776 6.16646C40.9501 5.77325 41.5077 5.48303 42.1504 5.29579C42.8119 5.08982 43.5208 4.98685 44.2767 4.98685ZM47.1687 11.4185V14.2833H36.5083V11.4185H47.1687ZM52.7184 11.4185V25.4615H48.8341V11.4185H52.7184Z" fill="#003E21"/>
<path d="M54.8625 25.4615V5.2677H58.7468V13.8058C59.2004 12.9071 59.8241 12.2424 60.618 11.8117C61.4119 11.3624 62.3098 11.1377 63.3114 11.1377C64.2942 11.1377 65.1638 11.3249 65.9198 11.6994C66.6947 12.0739 67.2996 12.6449 67.7344 13.4126C68.188 14.1616 68.4147 15.1072 68.4147 16.2493V25.4615H64.5306V17.3728C64.5306 16.1557 64.2942 15.3225 63.8219 14.8731C63.3493 14.405 62.7444 14.171 62.0072 14.171C61.4591 14.171 60.9299 14.302 60.4196 14.5642C59.9281 14.8076 59.5217 15.2195 59.2004 15.7999C58.898 16.3617 58.7468 17.1106 58.7468 18.0468V25.4615H54.8625Z" fill="#003E21"/>
<path d="M79.506 16.5021C79.506 15.6969 79.2698 15.0697 78.7972 14.6203C78.3435 14.171 77.7387 13.9463 76.9828 13.9463C76.2833 13.9463 75.6691 14.1241 75.1398 14.4799C74.6105 14.8357 74.223 15.4255 73.9773 16.2493L70.6602 15.2382C70.9816 14.0024 71.6808 13.0101 72.7583 12.2611C73.8546 11.5122 75.3193 11.1377 77.1527 11.1377C78.4002 11.1377 79.4872 11.3343 80.4133 11.7275C81.3394 12.1019 82.0576 12.673 82.5679 13.4407C83.0972 14.2084 83.3618 15.1727 83.3618 16.3336V22.035C83.3618 22.7466 83.7021 23.1023 84.3826 23.1023C84.7039 23.1023 85.0063 23.0556 85.2897 22.9619L85.063 25.3491C84.5715 25.5927 83.9573 25.7142 83.2201 25.7142C82.5586 25.7142 81.9631 25.602 81.4339 25.3773C80.9046 25.1525 80.4888 24.8156 80.1864 24.3661C79.884 23.8981 79.7328 23.3176 79.7328 22.6248V22.5124L80.4133 22.4001C80.2998 23.1116 79.988 23.7202 79.4777 24.2258C78.9674 24.7126 78.3435 25.0871 77.6065 25.3491C76.8881 25.6112 76.1416 25.7424 75.3667 25.7424C74.4026 25.7424 73.571 25.602 72.8715 25.321C72.1723 25.0214 71.6336 24.5909 71.2555 24.0292C70.8776 23.4673 70.6885 22.7747 70.6885 21.9508C70.6885 20.9023 71.0288 20.0503 71.7093 19.3949C72.3897 18.7209 73.3631 18.2621 74.6295 18.0187L79.9595 16.9515L79.9313 19.3388L76.529 20.0128C75.8865 20.1439 75.3949 20.3218 75.0548 20.5465C74.7335 20.7524 74.5728 21.0989 74.5728 21.5857C74.5728 22.0538 74.743 22.4094 75.0831 22.653C75.4422 22.8963 75.8675 23.018 76.359 23.018C76.7559 23.018 77.1432 22.9711 77.5213 22.8775C77.8994 22.7839 78.2395 22.6342 78.5421 22.4282C78.8445 22.2222 79.0806 21.9414 79.2508 21.5857C79.421 21.2298 79.506 20.7992 79.506 20.2937V16.5021Z" fill="#003E21"/>
<path d="M87.2098 25.4615V11.4185H90.5837L90.8388 14.171C91.2169 13.1973 91.7649 12.4483 92.4833 11.9241C93.2203 11.3998 94.1371 11.1377 95.2334 11.1377C95.5548 11.1377 95.8477 11.1657 96.1123 11.2219C96.3769 11.2781 96.5943 11.353 96.7643 11.4466L96.3107 14.6765C96.1218 14.6016 95.8854 14.5454 95.602 14.508C95.3374 14.4705 94.9878 14.4518 94.553 14.4518C93.9859 14.4518 93.4377 14.5922 92.9084 14.8731C92.3794 15.1352 91.9446 15.5472 91.6042 16.1089C91.2641 16.6519 91.0939 17.3447 91.0939 18.1872V25.4615H87.2098Z" fill="#003E21"/>
<path d="M112 11.4185L106.273 26.3322C105.819 27.6054 105.309 28.6166 104.742 29.3655C104.194 30.1144 103.551 30.6575 102.814 30.9944C102.096 31.3315 101.236 31.5 100.234 31.5C99.4969 31.5 98.8164 31.4064 98.1927 31.2192C97.5877 31.0507 97.0586 30.8259 96.6049 30.5451L97.427 27.7645C97.7863 28.0453 98.1642 28.2419 98.5613 28.3543C98.9581 28.4854 99.4117 28.5509 99.9222 28.5509C100.451 28.5509 100.905 28.4385 101.283 28.214C101.68 27.9892 102.011 27.5399 102.275 26.8659L102.757 25.6581L101.198 22.0069L96.86 11.4185H101.17L103.863 19.8443L104.6 22.653L105.479 19.6758L108.059 11.4185H112Z" fill="#003E21"/>
<path d="M49.1109 9.86378C48.7528 5.03096 53.1924 5.85607 53.1924 5.85607C53.3355 7.38843 52.9106 10.1278 49.1109 9.86378Z" fill="#003E21" stroke="#003E21"/>
</g>
<defs>
<clipPath id="clip0_2_311">
<rect width="112" height="31" fill="white" transform="translate(0 0.5)"/>
</clipPath>
</defs>
</svg>
