<svg width="16" height="17" viewBox="0 0 16 17" fill="none" xmlns="http://www.w3.org/2000/svg">
<path d="M2.00665 7.97998V10.9733C2.00665 13.9666 3.20665 15.1666 6.19999 15.1666H9.79332C12.7867 15.1666 13.9867 13.9666 13.9867 10.9733V7.97998" stroke="#616161" stroke-width="1.25" stroke-linecap="round" stroke-linejoin="round"/>
<path d="M7.99999 8.50016C9.21999 8.50016 10.12 7.50683 9.99999 6.28683L9.55999 1.8335H6.44666L5.99999 6.28683C5.87999 7.50683 6.77999 8.50016 7.99999 8.50016Z" stroke="#616161" stroke-width="1.25" stroke-linecap="round" stroke-linejoin="round"/>
<path d="M12.2067 8.50016C13.5533 8.50016 14.54 7.40683 14.4067 6.06683L14.22 4.2335C13.98 2.50016 13.3133 1.8335 11.5667 1.8335H9.53333L9.99999 6.50683C10.1133 7.60683 11.1067 8.50016 12.2067 8.50016Z" stroke="#616161" stroke-width="1.25" stroke-linecap="round" stroke-linejoin="round"/>
<path d="M3.75998 8.50016C4.85998 8.50016 5.85332 7.60683 5.95998 6.50683L6.10665 5.0335L6.42665 1.8335H4.39332C2.64665 1.8335 1.97998 2.50016 1.73998 4.2335L1.55998 6.06683C1.42665 7.40683 2.41332 8.50016 3.75998 8.50016Z" stroke="#616161" stroke-width="1.25" stroke-linecap="round" stroke-linejoin="round"/>
<path d="M7.99998 11.8335C6.88665 11.8335 6.33331 12.3868 6.33331 13.5002V15.1668H9.66665V13.5002C9.66665 12.3868 9.11331 11.8335 7.99998 11.8335Z" stroke="#616161" stroke-width="1.25" stroke-linecap="round" stroke-linejoin="round"/>
</svg>
