<svg width="74" height="74" viewBox="0 0 74 74" fill="none" xmlns="http://www.w3.org/2000/svg">
<rect width="74" height="74" rx="37" fill="#A1D83B"/>
<path d="M45.8962 43.8425L46.4325 48.3191C46.57 49.495 45.3462 50.3166 44.37 49.7075L38.6087 46.18C37.9762 46.18 37.3575 46.1375 36.7525 46.0525C37.77 44.82 38.375 43.2616 38.375 41.5758C38.375 37.5525 34.9925 34.2942 30.8125 34.2942C29.2175 34.2942 27.7462 34.7617 26.5225 35.5833C26.4812 35.2292 26.4675 34.875 26.4675 34.5066C26.4675 28.0608 31.8987 22.8333 38.6087 22.8333C45.3187 22.8333 50.75 28.0608 50.75 34.5066C50.75 38.3316 48.8387 41.7175 45.8962 43.8425Z" stroke="#F2F2F7" stroke-width="2" stroke-linecap="round" stroke-linejoin="round"/>
<path d="M38.375 41.5758C38.375 43.2616 37.77 44.82 36.7525 46.0525C35.3913 47.7525 33.2325 48.8433 30.8125 48.8433L27.2237 51.0391C26.6187 51.4216 25.8487 50.8975 25.9312 50.175L26.275 47.3842C24.4325 46.0667 23.25 43.9558 23.25 41.5758C23.25 39.0825 24.5425 36.8867 26.5225 35.5833C27.7463 34.7617 29.2175 34.2942 30.8125 34.2942C34.9925 34.2942 38.375 37.5525 38.375 41.5758Z" stroke="#F2F2F7" stroke-width="2" stroke-linecap="round" stroke-linejoin="round"/>
</svg>
