<svg width="29" height="29" viewBox="0 0 29 29" fill="none" xmlns="http://www.w3.org/2000/svg">
<path d="M23.1783 13.9288C23.1794 14.3902 23.0463 14.8419 22.7949 15.2288C22.5511 15.6196 22.1974 15.9298 21.7783 16.1205L9.98661 21.8372C9.65823 22.0021 9.29574 22.0878 8.92827 22.0872C8.77412 22.0874 8.62041 22.0707 8.46994 22.0372C7.95515 21.9405 7.48656 21.6769 7.1366 21.2872C6.78412 20.8978 6.56756 20.4046 6.51947 19.8817C6.47138 19.3587 6.59437 18.8343 6.86994 18.3872L9.73661 14.4038C9.80283 14.2455 9.83682 14.0755 9.8366 13.9038C9.83692 13.7188 9.79412 13.5362 9.71161 13.3705L7.0616 9.62051C6.78779 9.1651 6.67344 8.63146 6.7366 8.10383C6.79356 7.5972 7.00982 7.12171 7.35425 6.74583C7.69869 6.36995 8.15352 6.11306 8.65327 6.01217C9.15582 5.91363 9.67652 5.97181 10.1449 6.17884L21.8116 11.7372C22.2215 11.9382 22.5669 12.2501 22.8084 12.6375C23.05 13.0249 23.1781 13.4723 23.1783 13.9288Z" fill="#003E21"/>
</svg>
