<svg width="16" height="17" viewBox="0 0 16 17" fill="none" xmlns="http://www.w3.org/2000/svg">
<path d="M2 6.5734V10.4201C2 11.8334 2 11.8334 3.33333 12.7334L7 14.8534C7.55333 15.1734 8.45333 15.1734 9 14.8534L12.6667 12.7334C14 11.8334 14 11.8334 14 10.4267V6.5734C14 5.16674 14 5.16674 12.6667 4.26674L9 2.14674C8.45333 1.82674 7.55333 1.82674 7 2.14674L3.33333 4.26674C2 5.16674 2 5.16674 2 6.5734Z" stroke="#616161" stroke-width="1.25" stroke-linecap="round" stroke-linejoin="round"/>
<path d="M8 10.5C9.10457 10.5 10 9.60457 10 8.5C10 7.39543 9.10457 6.5 8 6.5C6.89543 6.5 6 7.39543 6 8.5C6 9.60457 6.89543 10.5 8 10.5Z" stroke="#616161" stroke-width="1.25" stroke-linecap="round" stroke-linejoin="round"/>
</svg>
