<svg width="17" height="16" viewBox="0 0 17 16" fill="none" xmlns="http://www.w3.org/2000/svg">
<path d="M15.4067 5.51301L15.2133 3.66634C14.9333 1.65301 14.02 0.833008 12.0667 0.833008H10.4933H9.50668H7.48001H6.49334H4.89334C2.93334 0.833008 2.02668 1.65301 1.74001 3.68634L1.56001 5.51967C1.49334 6.23301 1.68668 6.92634 2.10668 7.46634C2.61334 8.12634 3.39334 8.49967 4.26001 8.49967C5.10001 8.49967 5.90668 8.07967 6.41334 7.40634C6.86668 8.07967 7.64001 8.49967 8.50001 8.49967C9.36001 8.49967 10.1133 8.09967 10.5733 7.43301C11.0867 8.09301 11.88 8.49967 12.7067 8.49967C13.5933 8.49967 14.3933 8.10634 14.8933 7.41301C15.2933 6.87967 15.4733 6.20634 15.4067 5.51301Z" fill="#1976D2"/>
<path d="M8.06675 11.1065C7.22008 11.1932 6.58008 11.9132 6.58008 12.7665V14.5932C6.58008 14.7732 6.72674 14.9198 6.90674 14.9198H10.0867C10.2667 14.9198 10.4134 14.7732 10.4134 14.5932V12.9998C10.4201 11.6065 9.60008 10.9465 8.06675 11.1065Z" fill="#1976D2"/>
<path d="M14.7468 9.60005V11.5867C14.7468 13.4267 13.2534 14.9201 11.4134 14.9201C11.2334 14.9201 11.0868 14.7734 11.0868 14.5934V13.0001C11.0868 12.1467 10.8268 11.4801 10.3201 11.0267C9.87342 10.6201 9.26675 10.4201 8.51342 10.4201C8.34675 10.4201 8.18008 10.4267 8.00008 10.4467C6.81342 10.5667 5.91342 11.5667 5.91342 12.7667V14.5934C5.91342 14.7734 5.76675 14.9201 5.58675 14.9201C3.74675 14.9201 2.25342 13.4267 2.25342 11.5867V9.61339C2.25342 9.14672 2.71342 8.83339 3.14675 8.98672C3.32675 9.04672 3.50675 9.09339 3.69342 9.12005C3.77342 9.13339 3.86008 9.14672 3.94008 9.14672C4.04675 9.16005 4.15342 9.16672 4.26008 9.16672C5.03342 9.16672 5.79342 8.88005 6.39342 8.38672C6.96675 8.88005 7.71342 9.16672 8.50008 9.16672C9.29342 9.16672 10.0268 8.89339 10.6001 8.40005C11.2001 8.88672 11.9468 9.16672 12.7068 9.16672C12.8268 9.16672 12.9468 9.16005 13.0601 9.14672C13.1401 9.14005 13.2134 9.13339 13.2868 9.12005C13.4934 9.09339 13.6801 9.03339 13.8668 8.97339C14.3001 8.82672 14.7468 9.14672 14.7468 9.60005Z" fill="#1976D2"/>
</svg>
