<svg width="17" height="16" viewBox="0 0 17 16" fill="none" xmlns="http://www.w3.org/2000/svg">
<path d="M11.3333 14.9998C11.9777 14.9998 12.5 14.4775 12.5 13.8332C12.5 13.1888 11.9777 12.6665 11.3333 12.6665C10.689 12.6665 10.1667 13.1888 10.1667 13.8332C10.1667 14.4775 10.689 14.9998 11.3333 14.9998Z" fill="#FFC107"/>
<path d="M6.00001 14.9998C6.64434 14.9998 7.16668 14.4775 7.16668 13.8332C7.16668 13.1888 6.64434 12.6665 6.00001 12.6665C5.35568 12.6665 4.83334 13.1888 4.83334 13.8332C4.83334 14.4775 5.35568 14.9998 6.00001 14.9998Z" fill="#FFC107"/>
<path d="M3.72668 2.62683L3.59334 4.26016C3.56668 4.5735 3.81334 4.8335 4.12668 4.8335H14.3333C14.6133 4.8335 14.8467 4.62016 14.8667 4.34016C14.9533 3.16016 14.0533 2.20016 12.8733 2.20016H4.68001C4.61334 1.90683 4.48001 1.62683 4.27334 1.3935C3.94001 1.04016 3.47334 0.833496 2.99334 0.833496H1.83334C1.56001 0.833496 1.33334 1.06016 1.33334 1.3335C1.33334 1.60683 1.56001 1.8335 1.83334 1.8335H2.99334C3.20001 1.8335 3.39334 1.92016 3.53334 2.06683C3.67334 2.22016 3.74001 2.42016 3.72668 2.62683Z" fill="#FFC107"/>
<path d="M14.1733 5.8335H3.94666C3.66666 5.8335 3.43999 6.04683 3.41333 6.32016L3.17333 9.22016C3.07999 10.3602 3.97333 11.3335 5.11333 11.3335H12.5267C13.5267 11.3335 14.4067 10.5135 14.48 9.5135L14.7 6.40016C14.7267 6.0935 14.4867 5.8335 14.1733 5.8335Z" fill="#FFC107"/>
</svg>
