<svg width="16" height="17" viewBox="0 0 16 17" fill="none" xmlns="http://www.w3.org/2000/svg">
<path d="M12.0933 14.9135C11.5067 15.0868 10.8133 15.1668 10 15.1668H6.00001C5.18668 15.1668 4.49334 15.0868 3.90668 14.9135C4.05334 13.1802 5.83334 11.8135 8.00001 11.8135C10.1667 11.8135 11.9467 13.1802 12.0933 14.9135Z" stroke="#616161" stroke-width="1.25" stroke-linecap="round" stroke-linejoin="round"/>
<path d="M9.99998 1.8335H5.99998C2.66665 1.8335 1.33331 3.16683 1.33331 6.50016V10.5002C1.33331 13.0202 2.09331 14.4002 3.90665 14.9135C4.05331 13.1802 5.83331 11.8135 7.99998 11.8135C10.1666 11.8135 11.9466 13.1802 12.0933 14.9135C13.9066 14.4002 14.6666 13.0202 14.6666 10.5002V6.50016C14.6666 3.16683 13.3333 1.8335 9.99998 1.8335ZM7.99998 9.94682C6.67998 9.94682 5.61331 8.87351 5.61331 7.55351C5.61331 6.23351 6.67998 5.16683 7.99998 5.16683C9.31998 5.16683 10.3866 6.23351 10.3866 7.55351C10.3866 8.87351 9.31998 9.94682 7.99998 9.94682Z" stroke="#616161" stroke-width="1.25" stroke-linecap="round" stroke-linejoin="round"/>
<path d="M10.3867 7.55318C10.3867 8.87318 9.32001 9.94649 8.00001 9.94649C6.68001 9.94649 5.61334 8.87318 5.61334 7.55318C5.61334 6.23318 6.68001 5.1665 8.00001 5.1665C9.32001 5.1665 10.3867 6.23318 10.3867 7.55318Z" stroke="#616161" stroke-width="1.25" stroke-linecap="round" stroke-linejoin="round"/>
</svg>
