<svg width="16" height="17" viewBox="0 0 16 17" fill="none" xmlns="http://www.w3.org/2000/svg">
<path d="M10.7933 1.83301H5.20659C2.77992 1.83301 1.33325 3.27967 1.33325 5.70634V11.293C1.33325 13.1663 2.19325 14.453 3.70659 14.9397C4.14659 15.093 4.65325 15.1663 5.20659 15.1663H10.7933C11.3466 15.1663 11.8533 15.093 12.2933 14.9397C13.8066 14.453 14.6666 13.1663 14.6666 11.293V5.70634C14.6666 3.27967 13.2199 1.83301 10.7933 1.83301ZM13.6666 11.293C13.6666 12.7197 13.1066 13.6197 11.9799 13.993C11.3333 12.7197 9.79992 11.813 7.99992 11.813C6.19992 11.813 4.67325 12.713 4.01992 13.993H4.01325C2.89992 13.633 2.33325 12.7263 2.33325 11.2997V5.70634C2.33325 3.82634 3.32659 2.83301 5.20659 2.83301H10.7933C12.6733 2.83301 13.6666 3.82634 13.6666 5.70634V11.293Z" fill="#003E21"/>
<path d="M7.99995 5.83301C6.67995 5.83301 5.61328 6.89967 5.61328 8.21967C5.61328 9.53967 6.67995 10.613 7.99995 10.613C9.31995 10.613 10.3866 9.53967 10.3866 8.21967C10.3866 6.89967 9.31995 5.83301 7.99995 5.83301Z" fill="white"/>
</svg>
